# vtk DataFile Version 1.0

ASCII
DATASET POLYDATA
POINTS 642 float
-17.9816494 18.6672516 7.4468112
0.0637118518 20.1990414 6.1132431
-4.85625744 3.82592988 0.72902894
-24.5392246 3.32851171 0.695285559
-18.5280094 8.13067818 14.5033407
-16.6353073 12.9056072 -3.00780606
-5.82277727 14.4932327 -4.7651124
-6.00036812 8.44457054 13.4664564
-9.50196648 23.8814869 15.7787218
-14.9902964 -3.03440547 5.20284939
-16.648365 -1.06235039 -9.18233013
-8.47581673 29.1034107 1.44232798
-6.80145597 16.1865978 16.9670315
-14.67731 16.7331791 17.4387646
-12.6860361 7.53446293 16.5008335
-10.2678032 1.38689709 10.3090229
-18.1759052 0.771890104 11.2299042
-5.40835094 23.8015709 -3.08647656
-11.8847837 13.1171398 -5.14606619
-12.314291 21.1286449 -0.81306541
-11.2943821 5.2994709 -7.29018402
-19.0241871 5.59149361 -8.11961365
-22.4273586 4.12774754 8.16420174
-19.1316586 14.5718365 12.1431618
-21.4964752 10.4227819 4.17525482
-22.4037495 7.38462114 -3.31719255
-17.4034233 16.3567066 1.7360096
-1.78655434 14.9138594 11.507762
-4.39441395 5.59713554 7.38196421
-0.936844587 11.9547586 3.34951878
-1.11793661 19.3880711 -1.27578533
-4.41885042 8.40859032 -3.26456833
-14.1567068 25.3374691 5.37447262
-15.0758619 24.0910072 13.0897255
-7.97185087 29.6580067 9.04231834
-2.43819976 27.9910526 2.36693215
-2.80845404 23.8057613 11.9402714
-24.3481655 0.0808008984 -7.2252326
-16.4431057 -5.16870451 -3.66382122
-22.19063 -2.07784128 2.7433939
-9.48619938 -1.05746865 -4.96631145
-9.02637577 -2.06085515 2.32936645
-10.897295 16.2748108 18.1578884
-13.573946 12.0585804 17.8800449
-9.68604851 11.6365309 17.3979454
-15.927021 7.48393393 16.1733856
-16.6631622 12.5164509 16.4748669
-12.3690453 20.5129776 17.3399448
-7.99535608 20.2771263 16.9161243
-6.05642319 12.1599216 15.7212715
-9.03586674 7.64531231 15.4339247
-11.4135828 4.09864044 13.9929647
-15.4085474 3.71102142 14.3177433
-14.2253685 0.750395119 11.5632
-18.7500134 4.04557896 13.1616974
-7.96595335 4.72019005 12.1512909
-12.5085001 -1.20741105 8.03285503
-16.6739464 -1.42986321 8.65359592
-8.47524834 18.9961739 -3.9873023
-11.674695 17.398571 -3.23726797
-9.00806141 22.8516026 -2.4601624
-14.4632463 16.676218 -1.59963441
-14.3129053 13.2537193 -4.18248892
-8.80462551 14.3611956 -5.17171478
-5.4558177 19.263073 -4.29239178
-6.98513794 26.953146 -1.41939318
-10.4377108 25.6184044 0.0695281401
-15.0273676 5.47773361 -8.46138859
-15.3629866 9.17441177 -6.58013296
-11.5875998 9.61636925 -6.43514967
-17.7925549 9.70672321 -5.66915989
-18.1343994 2.55444956 -9.68250751
-13.4229069 2.08467388 -8.79427147
-8.35572624 9.92773151 -5.72090864
-21.0561066 9.16441154 10.1938257
-20.5524559 12.1152115 8.18442535
-22.3802719 7.71161604 6.50522137
-19.6147614 14.446516 5.97424555
-18.8448544 16.7578087 9.8249321
-19.1968288 11.297821 13.6321926
-20.6973801 6.15881538 11.6175194
-23.6866589 3.58607531 4.65763521
-23.3295155 7.12107086 2.42593122
-22.1233902 9.36746311 0.436773568
-19.7137623 13.3814697 2.85093522
-19.979805 11.8090334 -0.417674869
-17.8131561 17.6407681 4.41512871
-24.0578671 5.07960272 -2.24220252
-19.5688801 10.7741108 -3.21839499
-17.0670109 14.7424994 -0.63836658
-2.51824379 10.1853933 9.55855179
-2.23082447 8.7358923 5.684484
-0.858615756 13.0727806 7.58116341
-2.63469195 7.80182695 2.10375619
-4.32339191 4.55544472 4.04616261
-4.99409723 6.82924795 10.6060362
-3.62427521 11.6193924 12.8531351
-0.422477067 17.3484154 9.02657032
0.012764439 15.9075356 4.81001186
-0.532511234 15.4573412 0.766586483
-2.26894045 10.203908 -0.367439359
-2.37297702 13.5608377 -2.30211067
-4.29259014 5.96694088 -1.46574903
0.0483846441 19.8794937 2.17326999
-3.15971208 17.0378094 -3.66613674
-5.01195574 11.2938614 -4.40574598
-14.6252565 25.7902241 9.34563828
-11.8876591 27.7644291 11.846715
-11.3508787 29.0654678 7.18726492
-8.4616518 27.3190594 12.8957386
-12.7446404 24.4630356 15.1987047
-16.9950542 21.7988205 10.2511244
-16.4301758 22.0729256 6.58558989
-11.5648594 27.531498 3.34670496
-7.76753807 30.4034767 4.58092451
-4.6224575 29.8555698 5.27388763
-4.80955267 27.7187061 10.2548246
-1.77423275 26.6768608 7.20594263
-5.81514025 24.1964073 14.364603
-5.07700729 29.4341068 0.719670653
-0.430470496 24.3739128 4.54076719
-0.754968047 22.1847553 9.23430252
-21.5912285 -3.41504931 -6.1596756
-19.7609653 -4.41612291 -0.892666876
-23.6209126 -1.90291142 -3.08250594
-18.7168808 -3.23405313 4.20128441
-15.5654182 -4.73763132 0.987432778
-16.5800323 -3.78980041 -7.19560575
-21.1924953 -0.587350249 -9.14906883
-24.9832439 1.31031013 -3.26244164
-24.3361664 0.413274139 1.91962183
-9.00683689 -2.51031613 -1.56918049
-12.3273296 -4.58199835 -0.740086436
-12.5206556 -4.24312973 -4.78849602
-11.6372995 -3.02607894 3.76059461
-6.69728231 0.36577332 1.54858148
-6.83978033 1.00515401 -2.02635837
-12.5954399 -1.46658146 -7.56681299
-17.4466839 15.9577484 15.2322664
-15.2980032 20.7761326 15.7775841
-17.4378738 19.6405315 12.8797007
-15.8912897 20.7911167 3.56575203
-13.4857502 23.5129204 1.99051249
-15.0756168 18.9027214 0.705677927
-20.2000561 -1.1789906 7.44640732
-20.9102268 2.10358715 10.125267
-22.9160786 0.536093891 5.84691095
-24.1354008 3.40985584 -6.05835199
-20.9531307 7.08907938 -5.88688421
-21.8928261 2.88151121 -9.2598381
-4.49948025 20.1449051 15.2750483
-3.84228969 15.6872644 14.7487936
-1.81934917 19.4303951 12.1709061
-0.900146067 24.0555534 0.700766683
-2.81531501 21.7377205 -2.99093723
-3.59199715 26.87924 -1.1619606
-6.63952971 1.43841314 4.96992016
-7.1340723 2.96269417 8.87930775
-9.26906872 -0.460055143 6.38218069
-9.74709892 2.27089238 -6.64769602
-7.31882286 6.990417 -5.26974297
-6.61532593 3.83416986 -3.94353652
-12.1871538 14.0821924 18.2060013
-11.6077185 11.8911533 17.8442707
-10.1997757 13.9692669 17.947897
-11.2619944 9.63615704 17.1650848
-12.984251 9.95011425 17.4410572
-14.0218143 14.3547392 17.9059868
-12.8897305 16.3203869 18.1023121
-8.88120461 16.106266 17.7411518
-8.31177235 14.0013018 17.3993835
-14.6737289 9.87630939 17.2237701
-15.1675119 12.281044 17.3778343
-16.0502167 10.1745653 16.6977768
-15.6083174 14.6012907 17.1349602
-14.2942801 7.67184067 16.591568
-17.1817608 7.91883659 15.598815
-17.3703156 10.1992884 15.7500992
-11.6776428 18.3515434 17.9789829
-9.51478767 18.2551765 17.7547741
-10.3069773 20.0807648 17.5570221
-7.39110756 18.1982327 17.1068687
-13.5608015 18.5564346 17.5866699
-10.891777 22.077261 16.8509388
-8.87224293 21.9688606 16.6108875
-7.77955341 12.0038548 16.7470284
-9.35424328 9.60744286 16.6131954
-7.61001587 9.94024849 15.8464813
-10.8175755 7.62414694 16.1734562
-6.47812176 14.0943956 16.5535088
-6.17499828 10.0848179 14.8210421
-7.46912861 8.12328625 14.6487837
-13.3762379 3.82826138 14.3279343
-14.7501392 2.14286256 13.0482826
-12.7294865 2.30320406 12.8119879
-16.219389 0.803129256 11.7299891
-16.7006874 2.17308235 12.9509754
-14.0234509 5.48994064 15.515995
-12.0640783 5.71973133 15.4027348
-10.9337683 2.59396052 12.2774534
-12.1590757 1.1430707 11.2791243
-17.1446209 3.80334949 13.9739685
-15.6343651 5.56212807 15.4610538
-17.3721104 5.73207951 14.8784351
-18.4168892 2.28377104 12.3922405
-18.6286259 6.12079144 14.048831
-10.2026024 5.83062792 14.8157692
-9.61130905 4.25273705 13.1342087
-8.41964436 6.09673786 13.913023
-9.29398346 3.01067853 11.4801636
-6.95722723 6.64874649 12.9925613
-13.2593203 -0.212943688 9.99412346
-15.4633408 -0.389852196 10.2605906
-14.5258045 -1.33978629 8.6669693
-17.4278183 -0.364780307 10.1074743
-11.4009323 0.0828365684 9.33178902
-13.7759266 -2.20836043 6.78949356
-15.8283529 -2.28336239 7.10816383
-10.2386713 18.2928066 -3.61759162
-10.478404 20.2624016 -2.6933732
-8.73175621 20.9546719 -3.26652265
-10.704071 21.9212666 -1.7802819
-11.8507576 19.5153809 -2.0631597
-11.5351868 15.3238487 -4.23194075
-10.0301847 16.3514633 -4.36076355
-6.9203496 21.4974041 -3.58581591
-7.19540739 23.3698444 -2.94513488
-13.0250988 17.2012024 -2.40227175
-12.8909245 15.1646643 -3.64992809
-14.1516075 15.1277685 -2.88723278
-13.1194677 13.1881742 -4.7227335
-13.3156376 18.8074741 -1.23164475
-15.4582005 14.6371117 -2.29584074
-15.4318047 13.2180452 -3.58991337
-8.53401756 16.6814861 -4.61590099
-6.84769154 19.3596516 -4.18189478
-6.99090004 16.9718895 -4.66792297
-5.3809824 21.6168118 -3.72760558
-10.3706074 14.002512 -5.13431358
-7.2733345 14.5663633 -5.05339336
-5.69045019 16.7677345 -4.63856792
-8.06059837 24.9032326 -2.06782866
-9.91398716 24.1921749 -1.26455665
-8.79223251 26.4219875 -0.845247626
-11.3927612 23.388279 -0.429233521
-6.30355978 25.3484573 -2.39458442
-7.79676437 28.218586 -0.124656536
-9.55721951 27.5571518 0.648417532
-15.129509 7.21869707 -7.57803535
-13.5624084 9.28599262 -6.61743498
-13.4256935 7.32371712 -7.32646132
-11.8895817 11.4009027 -5.85717773
-13.6991558 11.0823536 -5.75776339
-17.0150681 7.14943314 -7.49967194
-16.880621 5.7694397 -8.47848129
-13.2544613 5.46437979 -7.9867034
-11.7138195 7.19887924 -7.0038352
-14.6423025 11.6374168 -5.31209421
-16.5472794 9.5181036 -6.21269321
-16.0469666 11.6518917 -4.79776001
-18.3903046 7.57714415 -6.94471741
-17.1800728 11.4683523 -4.29550219
-16.3966484 4.27848339 -9.31370449
-14.1629333 3.98237658 -8.91043282
-15.7941132 2.43338442 -9.49960899
-12.3322182 3.92614985 -8.16392803
-18.383173 4.40851927 -9.1821413
-17.2849102 0.742473185 -9.66396236
-15.0088024 0.582125545 -9.23470879
-10.0381823 9.59199905 -6.2100606
-10.1965218 12.0638685 -5.71585178
-8.60682869 12.0865173 -5.5596323
-9.82221985 7.53380632 -6.37546396
-7.06618404 12.4234629 -5.1687336
-20.8611088 10.7083054 9.21805573
-21.4810047 9.8702383 7.30950308
-21.7578583 8.33434677 8.35505486
-21.9943237 9.18283749 5.47366619
-21.0974751 11.0941563 6.19124842
-19.9624653 13.1885157 10.1628542
-20.1617737 11.7594976 11.0447741
-21.8373585 6.6733222 9.1669178
-22.5251923 6.07082367 7.46996212
-20.1569653 13.308383 7.06732655
-19.6993809 14.3927059 9.06607437
-19.318327 15.5074167 7.88555479
-19.0871391 15.6133585 10.9782972
-20.5373383 12.2958364 5.19736624
-18.8069897 16.467865 6.63939333
-18.515974 17.6983376 8.55154419
-20.1762905 10.2393312 11.9628334
-21.0083065 7.59905672 10.9570103
-19.987051 8.73163986 12.7358971
-21.6452465 5.16063118 9.88061523
-19.3523026 12.8338804 12.769906
-18.8156376 9.82375813 14.3105497
-19.664032 7.16208744 13.1804981
-23.1382465 5.62998533 5.65595865
-22.8741016 7.46879196 4.59881878
-23.641468 5.54746294 3.80972886
-22.4016495 8.83260918 3.28092337
-23.0842571 3.83494997 6.46956682
-24.16642 3.64992166 2.83242297
-24.0401821 5.29102087 1.66471016
-20.8039207 11.5107632 1.90051389
-19.7278538 12.8091393 1.26955199
-21.057375 10.7725477 0.143304035
-18.6847763 13.8482456 0.734377086
-18.6048985 14.7927036 2.08302021
-20.7688789 11.7040806 3.45099139
-21.7704506 9.98358536 2.1576376
-22.4013367 8.51180363 -1.39472532
-21.3129883 9.79843903 -1.76087534
-18.7135811 15.4302568 3.54633546
-19.7585678 13.7664366 4.37604904
-18.8107243 15.9398746 5.02806139
-17.6631279 16.9554195 3.01767111
-17.979084 18.1057014 5.89189768
-22.8643227 8.22521305 1.21677685
-23.248806 7.21955252 -0.920684695
-23.7836685 6.25149918 0.138058275
-23.3307819 6.12009811 -2.98505092
-24.4259319 4.34858608 -0.713828504
-19.9677715 11.1998701 -1.83223391
-18.5324955 13.2552032 -0.5833745
-18.3281021 12.6741076 -1.85230517
-17.3674545 15.3928766 0.550762296
-21.1317596 9.19170475 -3.28944302
-17.9593468 12.0938578 -3.07149339
-16.8288479 13.9079533 -1.79501832
-2.28883934 9.35643005 7.60851908
-1.44569552 10.8727121 6.63237715
-1.61694241 11.5287075 8.57914925
-0.806608856 12.3322201 5.54962587
-1.42132485 10.4508219 4.74089479
-3.17278409 7.3109436 6.77629328
-3.28042912 7.98701429 8.500844
-1.94352758 12.4842281 10.453866
-1.19500685 13.7290087 9.55611515
-2.30733776 8.31708431 3.92201161
-3.21278977 6.67286253 4.96575689
-3.36374426 6.20709467 3.1472156
-4.24913073 5.12459087 5.74390507
-1.67962587 9.91891766 2.8548882
-3.68113518 5.84396362 1.40333343
-4.51905346 4.1167016 2.35651612
-3.7023313 8.46342945 10.2002659
-2.95556569 10.88873 11.2301846
-4.17459059 9.27172565 11.8864803
-2.58939362 13.2935972 12.1947994
-4.56708336 6.25588608 8.97890186
-5.42515087 7.60482121 12.1034374
-4.83082533 10.11938 13.423358
-0.534950614 15.1330976 8.42944622
-0.319453746 14.3955193 6.25283098
-0.0585386083 16.5974712 6.9630003
-0.382296443 13.8231182 4.14883518
-1.03190112 15.9892178 10.3308525
-0.0479860641 18.6996651 7.56146574
0.162055239 18.0211353 5.45757294
-1.20009553 12.7248936 0.504867315
-2.15109825 11.8912163 -1.2147398
-1.28736866 14.4346399 -0.728727877
-3.26735592 11.0613832 -2.70316839
-3.30334282 9.32026958 -2.00791478
-1.41879904 11.1981821 1.47670305
-0.639124036 13.5078468 2.05226588
-0.728128672 17.3496056 -0.422348857
-1.60445285 16.1819649 -1.80229425
-3.17744398 8.0861845 -0.862499416
-2.26405072 9.08124828 0.996449351
-3.33097863 6.88259649 0.256021887
-4.21182299 7.1696806 -2.34271312
-4.44156265 4.95316076 -0.364530861
-0.117207937 15.5430298 2.73978925
-0.1294889 17.6498737 1.32524633
0.162977546 17.7239399 3.36120582
-0.376361191 19.7856789 0.312048525
0.204608321 19.9605331 4.16983032
-2.66154933 15.3412447 -3.05329466
-3.56020379 12.5462427 -3.50404525
-3.97095895 14.1421347 -4.11825562
-4.55477095 9.93456078 -3.83058023
-2.04302263 18.1661568 -2.53112435
-4.50709963 15.7795296 -4.42518377
-5.41948652 12.8612385 -4.67496538
-13.3983946 27.1883678 10.5012436
-11.830862 28.5664692 9.61160088
-13.0893326 27.666605 8.57762814
-9.94188404 29.5925236 8.37193584
-10.151927 28.8901958 10.5855083
-13.5493975 26.2842731 12.4577131
-14.7021952 25.4240437 11.3018656
-14.002327 26.2757454 7.37217903
-12.6960335 27.7178936 6.42505264
-10.2400341 27.7645798 12.538022
-12.224102 26.3660698 13.6489315
-10.6600294 26.1832047 14.2180481
-13.9056091 24.692894 14.0978489
-8.24831009 28.7132854 11.0836201
-8.75158691 25.7400665 14.4337301
-11.0267658 24.4331913 15.5630035
-15.8434534 23.9553566 9.9938736
-15.4746895 24.2914581 7.90221214
-16.7022514 22.2213497 8.40583992
-15.2293625 24.0219975 6.23183393
-16.0487862 23.2979698 11.7118359
-17.5619698 20.2868023 8.84871101
-17.3088017 20.3354149 6.99042988
-11.2654142 28.6719761 5.00747156
-9.67646694 29.8944054 5.87981319
-9.62922287 29.5035324 3.79643226
-8.02741241 30.2125587 6.84628916
-12.8731461 26.6745892 4.605268
-10.1858931 28.2951012 2.31331897
-7.98696184 29.9852104 2.68905997
-4.5895853 29.0481739 7.70603848
-3.1947391 27.5883732 8.52640247
-3.10370374 28.5385933 6.18277597
-2.16822052 25.6029892 9.51868439
-3.47253633 26.0864906 10.910409
-6.26337385 28.9982243 9.56245804
-6.15089273 29.9523888 7.29795074
-3.28397727 29.1076946 3.82873058
-1.9375155 27.5717316 4.83148432
-5.09279251 26.1337433 12.3722458
-6.6461339 27.754652 11.6366796
-6.93175507 26.0119133 13.5998135
-4.16456604 24.1869888 13.1702394
-7.68817663 23.9783821 15.3077536
-6.24300385 30.383213 5.2304244
-4.61911821 30.0524273 3.07946944
-6.29398155 30.3733177 2.6795752
-3.68285298 29.2262535 1.59247506
-6.71464872 29.5427647 0.955032527
-0.911090791 25.5646534 6.00709295
-1.08961391 24.4329319 8.48519897
-0.336633682 23.233551 6.96183968
-1.68556249 23.2745705 10.5765972
-1.23659599 26.3267822 3.49954939
-0.0362894833 22.2221756 5.44526243
-0.189641029 21.0725632 7.78641367
-20.6192894 -4.37181616 -3.27615356
-21.8136749 -3.32234573 -1.78993869
-22.6590443 -2.92872095 -4.51792383
-22.8863659 -2.329355 -0.432846367
-21.2512531 -3.3276968 0.718544543
-18.4077339 -5.1036787 -2.72398138
-19.4805927 -4.46448183 -5.21927404
-23.3192444 -1.95660102 -6.92361164
-24.1746941 -1.30239916 -5.35558414
-19.2780132 -3.99046159 1.61004663
-17.7456226 -4.91006756 -0.190684617
-17.1516953 -4.21824217 2.31481361
-16.0146828 -5.26927376 -1.32512367
-20.56213 -2.83326364 3.40412807
-16.8549595 -3.27618313 4.79898548
-15.1210556 -3.94539094 3.16713858
-19.482235 -3.60226345 -7.15301609
-21.684494 -2.17839122 -8.01672649
-19.3740292 -2.38470531 -8.53701401
-23.0387669 -0.445784986 -8.41365719
-16.7811337 -4.64444637 -5.61586523
-16.3788433 -2.61828923 -8.33693886
-18.809906 -0.997408867 -9.32655334
-24.5430679 -0.538737237 -3.15034413
-24.0579815 -1.07354295 -0.312260419
-24.8662968 0.848339617 -0.707266033
-23.4546413 -1.20190418 1.87925184
-24.8922958 0.281380355 -5.12708616
-24.8692856 2.35728478 -1.18923497
-24.5951462 1.92074859 1.49908698
-10.6273327 -3.81053376 -1.40401459
-12.3504095 -4.71828938 -2.73952699
-10.682416 -3.73977423 -3.12495255
-14.3280964 -4.92002583 -4.23930216
-14.2156973 -5.18245935 -2.08410525
-10.57164 -3.52596951 0.557995141
-9.18220043 -2.63241172 0.183830723
-9.39392662 -2.28331566 -3.40072727
-10.8620625 -2.99784207 -4.86160707
-13.9419193 -4.85130835 0.0687463507
-11.9192247 -3.96413732 1.43510258
-13.47614 -4.09645224 2.31447721
-10.3104649 -2.75215435 2.7982316
-13.2273951 -3.15026999 4.52371693
-7.80218983 -1.21859372 -0.0629166961
-7.89928007 -0.966439128 -1.95885348
-6.73600483 0.422996312 -0.353251576
-8.18411255 -0.341659248 -3.47579956
-7.89739943 -1.11031258 1.71912551
-5.74782801 1.95704675 1.16919768
-5.78441048 2.35343289 -0.560900033
-12.5034971 -3.19774508 -6.32957077
-14.5010824 -4.25952959 -6.06333828
-14.2920542 -3.01513934 -7.567029
-11.019371 -1.58364558 -6.25965214
-14.4856615 -1.24016225 -8.56322193
-16.4705906 18.43993 15.6436806
-16.6277084 20.2548752 14.4456329
-17.6216087 17.8395329 14.0831785
-16.4389591 21.900444 13.1160555
-15.3629885 22.4724274 14.5019064
-15.0835361 18.8460026 16.7426796
-16.1477585 16.4764423 16.5076542
-18.3595409 15.4749107 13.7333822
-18.3222408 17.1285324 12.5750914
-14.1320906 22.8284988 15.4713125
-13.8858604 20.7389603 16.742609
-12.3571815 22.7642059 16.3371429
-17.1377964 14.2604361 15.946682
-18.4784412 13.5663881 14.3567047
-18.0820656 11.8022261 15.161912
-18.2395611 18.2291412 11.3506737
-17.219902 20.9469337 11.6266918
-17.9854527 19.3289204 10.0466738
-14.7686701 22.2428074 2.86254215
-14.3145933 21.1490326 1.35447967
-15.494091 19.9056168 2.1056354
-13.7996407 19.9989071 -0.04080927
-12.9642868 22.2965908 0.489752293
-13.9144611 24.5450687 3.64209175
-15.1564264 23.0834179 4.44658661
-16.5803928 18.5369205 2.64324784
-16.2600136 17.6967487 1.2893132
-12.1190891 24.4877167 0.940670669
-12.6514854 25.6769161 2.71211457
-11.1345119 26.6195221 1.56231105
-16.1040955 21.6670609 5.06334066
-16.8882542 19.1897717 3.93983555
-17.1267471 19.8413734 5.45889378
-16.0960426 16.7304859 0.144736543
-14.7283201 17.8796501 -0.467046022
-15.7728424 15.7214394 -1.11775351
-20.7159901 0.217346057 8.8721199
-21.9336319 1.04076838 8.07888985
-21.7311058 -0.505565584 6.75097942
-22.6928673 2.15918779 7.18731308
-21.8100319 2.94001675 9.18330383
-19.6766624 1.29600942 10.7687769
-19.1883068 -0.295892656 9.49955273
-21.2423897 -1.75485301 5.25801229
-22.702076 -0.918200016 4.47964764
-20.9766121 4.06281137 10.8349266
-19.8757114 2.96444798 11.6882486
-19.8366852 5.1487155 12.5782804
-18.4755993 -1.36596894 8.26111221
-19.5920849 -2.2375567 5.93649149
-17.6815853 -2.43390131 6.62268591
-23.6381569 0.198910758 3.84658051
-23.4292049 2.04123759 5.45569992
-24.0612659 1.8851136 3.50501823
-22.69067 4.72736597 -6.51643658
-21.9791622 4.44645929 -7.87057781
-23.6277046 3.08282065 -7.88796186
-20.4259052 4.60083342 -8.51882172
-20.049778 6.55254602 -6.95967484
-21.8115826 7.14842319 -4.771029
-23.2156277 5.22189426 -4.82843876
-24.6793041 1.62981701 -6.59554338
-23.3496914 1.28603446 -8.684062
-19.3026295 8.66006851 -5.83911276
-20.3445911 9.1086483 -4.56256962
-18.6293011 10.6744423 -4.38050508
-24.1861057 4.21164274 -4.16668367
-24.7614994 2.07300591 -4.91151571
-24.7213821 3.22778678 -2.72810984
-21.4849415 1.02311087 -9.35261154
-19.8808556 3.22269821 -9.46830082
-19.0917473 0.75720197 -9.7013855
-4.05164433 17.9135246 15.1651754
-2.79624701 17.6829243 13.7124233
-3.06148338 19.7530804 13.9070902
-1.79686308 17.1690693 12.1413031
-2.68627167 15.5637236 13.2372885
-5.20157814 15.9323645 16.0427818
-5.57733011 18.1689777 16.311985
-3.51126194 21.9219437 13.7865496
-2.2407167 21.5246525 12.34653
-3.47645926 13.6482906 13.7408686
-4.83213234 14.0289736 15.3354883
-4.73521423 11.9047861 14.4037962
-6.07938337 20.1986408 16.2171154
-4.94526339 22.336998 14.8594294
-6.7755847 22.2713833 15.8173513
-1.22891927 20.914854 10.8079958
-1.00378215 18.2366581 10.7044344
-0.465617895 19.6784611 9.27390099
-1.82312799 23.444643 -1.34934235
-2.9412415 24.4879398 -2.11592126
-2.15651536 25.5433502 -0.513971925
-4.36555672 25.2915916 -2.47524023
-4.03944635 22.7434521 -3.32157207
-1.77604926 20.8871288 -2.06506133
-0.849347711 21.8935661 -0.3545219
-1.46331954 26.0181236 1.52598274
-2.81025267 27.5458508 0.514424682
-4.12351561 20.3785992 -3.94703269
-2.83432698 19.3014698 -3.35721254
-4.33853292 17.9349422 -4.34091187
-0.23024036 21.9426975 1.47611761
-0.508220196 24.2782326 2.60836816
0.017337054 22.0753098 3.4805994
-4.06128168 28.3104744 -0.138947427
-5.29704809 26.7775211 -1.8072294
-6.19135952 28.425806 -0.461844206
-6.6889143 2.29761529 6.93698645
-8.13659763 1.25069106 7.71349096
-7.86994696 0.379281491 5.65906429
-9.6526823 0.46286726 8.38282681
-8.6510601 2.10013175 9.68944263
-5.75357962 4.07384062 8.04345322
-5.5018816 3.50387859 6.32604313
-7.81041956 -0.43963483 3.68882132
-9.05832577 -1.30514836 4.38635874
-7.56137371 3.72585297 10.5433865
-5.95411253 4.8750062 9.69589233
-6.40291071 5.68349838 11.3995943
-5.39570522 2.9805336 4.62607288
-6.70707893 0.721518397 3.20228982
-5.48292255 2.42061973 2.88181233
-10.4104118 -1.86163354 5.10831642
-10.7710066 -0.893112481 7.29488325
-12.0526686 -2.14446259 6.0169816
-8.50332546 4.58428764 -5.85623789
-6.720366 5.54889107 -4.62634039
-8.04642391 2.96629715 -5.29172945
-5.40396881 6.22188997 -3.5151875
-5.7094965 7.81511259 -4.30657959
-9.24838543 6.00780439 -6.28912449
-10.3518896 3.91909552 -7.05106449
-9.45494175 0.586477757 -5.8830061
-7.99869871 1.20563054 -4.43211651
-6.08772135 9.27076244 -4.76536274
-7.82466078 8.47692204 -5.57633162
-6.58319092 10.9031191 -5.07555342
-11.3618059 2.30780077 -7.80624866
-10.9398689 0.268804669 -7.11799431
-12.7680645 0.377329826 -8.34932137
-6.71766996 2.19450784 -3.04058647
-5.3429637 4.87980175 -2.59707475
-5.46414804 3.50801682 -1.51529813
POLYGONS 1280 5120
3 164 162 163
3 163 44 164
3 162 43 163
3 164 42 162
3 166 165 163
3 163 43 166
3 165 44 163
3 166 14 165
3 168 167 162
3 162 42 168
3 167 43 162
3 168 13 167
3 170 169 164
3 164 44 170
3 169 42 164
3 170 12 169
3 173 171 172
3 172 46 173
3 171 43 172
3 173 45 171
3 167 174 172
3 172 43 167
3 174 46 172
3 167 13 174
3 175 166 171
3 171 45 175
3 166 43 171
3 175 14 166
3 177 176 173
3 173 46 177
3 176 45 173
3 177 4 176
3 180 178 179
3 179 48 180
3 178 42 179
3 180 47 178
3 169 181 179
3 179 42 169
3 181 48 179
3 169 12 181
3 182 168 178
3 178 47 182
3 168 42 178
3 182 13 168
3 184 183 180
3 180 48 184
3 183 47 180
3 184 8 183
3 187 185 186
3 186 50 187
3 185 44 186
3 187 49 185
3 165 188 186
3 186 44 165
3 188 50 186
3 165 14 188
3 189 170 185
3 185 49 189
3 170 44 185
3 189 12 170
3 191 190 187
3 187 50 191
3 190 49 187
3 191 7 190
3 194 192 193
3 193 53 194
3 192 52 193
3 194 51 192
3 196 195 193
3 193 52 196
3 195 53 193
3 196 16 195
3 198 197 192
3 192 51 198
3 197 52 192
3 198 14 197
3 200 199 194
3 194 53 200
3 199 51 194
3 200 15 199
3 203 201 202
3 202 45 203
3 201 52 202
3 203 54 201
3 197 175 202
3 202 52 197
3 175 45 202
3 197 14 175
3 204 196 201
3 201 54 204
3 196 52 201
3 204 16 196
3 176 205 203
3 203 45 176
3 205 54 203
3 176 4 205
3 208 206 207
3 207 55 208
3 206 51 207
3 208 50 206
3 199 209 207
3 207 51 199
3 209 55 207
3 199 15 209
3 188 198 206
3 206 50 188
3 198 51 206
3 188 14 198
3 210 191 208
3 208 55 210
3 191 50 208
3 210 7 191
3 213 211 212
3 212 57 213
3 211 53 212
3 213 56 211
3 195 214 212
3 212 53 195
3 214 57 212
3 195 16 214
3 215 200 211
3 211 56 215
3 200 53 211
3 215 15 200
3 217 216 213
3 213 57 217
3 216 56 213
3 217 9 216
3 220 218 219
3 219 60 220
3 218 59 219
3 220 58 218
3 222 221 219
3 219 59 222
3 221 60 219
3 222 19 221
3 224 223 218
3 218 58 224
3 223 59 218
3 224 18 223
3 226 225 220
3 220 60 226
3 225 58 220
3 226 17 225
3 229 227 228
3 228 62 229
3 227 59 228
3 229 61 227
3 223 230 228
3 228 59 223
3 230 62 228
3 223 18 230
3 231 222 227
3 227 61 231
3 222 59 227
3 231 19 222
3 233 232 229
3 229 62 233
3 232 61 229
3 233 5 232
3 236 234 235
3 235 64 236
3 234 58 235
3 236 63 234
3 225 237 235
3 235 58 225
3 237 64 235
3 225 17 237
3 238 224 234
3 234 63 238
3 224 58 234
3 238 18 224
3 240 239 236
3 236 64 240
3 239 63 236
3 240 6 239
3 243 241 242
3 242 66 243
3 241 60 242
3 243 65 241
3 221 244 242
3 242 60 221
3 244 66 242
3 221 19 244
3 245 226 241
3 241 65 245
3 226 60 241
3 245 17 226
3 247 246 243
3 243 66 247
3 246 65 243
3 247 11 246
3 250 248 249
3 249 69 250
3 248 68 249
3 250 67 248
3 252 251 249
3 249 68 252
3 251 69 249
3 252 18 251
3 254 253 248
3 248 67 254
3 253 68 248
3 254 21 253
3 256 255 250
3 250 69 256
3 255 67 250
3 256 20 255
3 259 257 258
3 258 70 259
3 257 68 258
3 259 62 257
3 253 260 258
3 258 68 253
3 260 70 258
3 253 21 260
3 230 252 257
3 257 62 230
3 252 68 257
3 230 18 252
3 261 233 259
3 259 70 261
3 233 62 259
3 261 5 233
3 264 262 263
3 263 72 264
3 262 67 263
3 264 71 262
3 255 265 263
3 263 67 255
3 265 72 263
3 255 20 265
3 266 254 262
3 262 71 266
3 254 67 262
3 266 21 254
3 268 267 264
3 264 72 268
3 267 71 264
3 268 10 267
3 271 269 270
3 270 63 271
3 269 69 270
3 271 73 269
3 251 238 270
3 270 69 251
3 238 63 270
3 251 18 238
3 272 256 269
3 269 73 272
3 256 69 269
3 272 20 256
3 239 273 271
3 271 63 239
3 273 73 271
3 239 6 273
3 276 274 275
3 275 76 276
3 274 75 275
3 276 74 274
3 278 277 275
3 275 75 278
3 277 76 275
3 278 24 277
3 280 279 274
3 274 74 280
3 279 75 274
3 280 23 279
3 282 281 276
3 276 76 282
3 281 74 276
3 282 22 281
3 285 283 284
3 284 78 285
3 283 75 284
3 285 77 283
3 279 286 284
3 284 75 279
3 286 78 284
3 279 23 286
3 287 278 283
3 283 77 287
3 278 75 283
3 287 24 278
3 289 288 285
3 285 78 289
3 288 77 285
3 289 0 288
3 292 290 291
3 291 80 292
3 290 74 291
3 292 79 290
3 281 293 291
3 291 74 281
3 293 80 291
3 281 22 293
3 294 280 290
3 290 79 294
3 280 74 290
3 294 23 280
3 296 295 292
3 292 80 296
3 295 79 292
3 296 4 295
3 299 297 298
3 298 82 299
3 297 76 298
3 299 81 297
3 277 300 298
3 298 76 277
3 300 82 298
3 277 24 300
3 301 282 297
3 297 81 301
3 282 76 297
3 301 22 282
3 303 302 299
3 299 82 303
3 302 81 299
3 303 3 302
3 306 304 305
3 305 85 306
3 304 84 305
3 306 83 304
3 308 307 305
3 305 84 308
3 307 85 305
3 308 26 307
3 310 309 304
3 304 83 310
3 309 84 304
3 310 24 309
3 312 311 306
3 306 85 312
3 311 83 306
3 312 25 311
3 315 313 314
3 314 77 315
3 313 84 314
3 315 86 313
3 309 287 314
3 314 84 309
3 287 77 314
3 309 24 287
3 316 308 313
3 313 86 316
3 308 84 313
3 316 26 308
3 288 317 315
3 315 77 288
3 317 86 315
3 288 0 317
3 320 318 319
3 319 87 320
3 318 83 319
3 320 82 318
3 311 321 319
3 319 83 311
3 321 87 319
3 311 25 321
3 300 310 318
3 318 82 300
3 310 83 318
3 300 24 310
3 322 303 320
3 320 87 322
3 303 82 320
3 322 3 303
3 325 323 324
3 324 89 325
3 323 85 324
3 325 88 323
3 307 326 324
3 324 85 307
3 326 89 324
3 307 26 326
3 327 312 323
3 323 88 327
3 312 85 323
3 327 25 312
3 329 328 325
3 325 89 329
3 328 88 325
3 329 5 328
3 332 330 331
3 331 92 332
3 330 91 331
3 332 90 330
3 334 333 331
3 331 91 334
3 333 92 331
3 334 29 333
3 336 335 330
3 330 90 336
3 335 91 330
3 336 28 335
3 338 337 332
3 332 92 338
3 337 90 332
3 338 27 337
3 341 339 340
3 340 94 341
3 339 91 340
3 341 93 339
3 335 342 340
3 340 91 335
3 342 94 340
3 335 28 342
3 343 334 339
3 339 93 343
3 334 91 339
3 343 29 334
3 345 344 341
3 341 94 345
3 344 93 341
3 345 2 344
3 348 346 347
3 347 96 348
3 346 90 347
3 348 95 346
3 337 349 347
3 347 90 337
3 349 96 347
3 337 27 349
3 350 336 346
3 346 95 350
3 336 90 346
3 350 28 336
3 352 351 348
3 348 96 352
3 351 95 348
3 352 7 351
3 355 353 354
3 354 98 355
3 353 92 354
3 355 97 353
3 333 356 354
3 354 92 333
3 356 98 354
3 333 29 356
3 357 338 353
3 353 97 357
3 338 92 353
3 357 27 338
3 359 358 355
3 355 98 359
3 358 97 355
3 359 1 358
3 362 360 361
3 361 101 362
3 360 100 361
3 362 99 360
3 364 363 361
3 361 100 364
3 363 101 361
3 364 31 363
3 366 365 360
3 360 99 366
3 365 100 360
3 366 29 365
3 368 367 362
3 362 101 368
3 367 99 362
3 368 30 367
3 371 369 370
3 370 93 371
3 369 100 370
3 371 102 369
3 365 343 370
3 370 100 365
3 343 93 370
3 365 29 343
3 372 364 369
3 369 102 372
3 364 100 369
3 372 31 364
3 344 373 371
3 371 93 344
3 373 102 371
3 344 2 373
3 376 374 375
3 375 103 376
3 374 99 375
3 376 98 374
3 367 377 375
3 375 99 367
3 377 103 375
3 367 30 377
3 356 366 374
3 374 98 356
3 366 99 374
3 356 29 366
3 378 359 376
3 376 103 378
3 359 98 376
3 378 1 359
3 381 379 380
3 380 105 381
3 379 101 380
3 381 104 379
3 363 382 380
3 380 101 363
3 382 105 380
3 363 31 382
3 383 368 379
3 379 104 383
3 368 101 379
3 383 30 368
3 385 384 381
3 381 105 385
3 384 104 381
3 385 6 384
3 388 386 387
3 387 108 388
3 386 107 387
3 388 106 386
3 390 389 387
3 387 107 390
3 389 108 387
3 390 34 389
3 392 391 386
3 386 106 392
3 391 107 386
3 392 33 391
3 394 393 388
3 388 108 394
3 393 106 388
3 394 32 393
3 397 395 396
3 396 110 397
3 395 107 396
3 397 109 395
3 391 398 396
3 396 107 391
3 398 110 396
3 391 33 398
3 399 390 395
3 395 109 399
3 390 107 395
3 399 34 390
3 401 400 397
3 397 110 401
3 400 109 397
3 401 8 400
3 404 402 403
3 403 112 404
3 402 106 403
3 404 111 402
3 393 405 403
3 403 106 393
3 405 112 403
3 393 32 405
3 406 392 402
3 402 111 406
3 392 106 402
3 406 33 392
3 408 407 404
3 404 112 408
3 407 111 404
3 408 0 407
3 411 409 410
3 410 114 411
3 409 108 410
3 411 113 409
3 389 412 410
3 410 108 389
3 412 114 410
3 389 34 412
3 413 394 409
3 409 113 413
3 394 108 409
3 413 32 394
3 415 414 411
3 411 114 415
3 414 113 411
3 415 11 414
3 418 416 417
3 417 117 418
3 416 116 417
3 418 115 416
3 420 419 417
3 417 116 420
3 419 117 417
3 420 36 419
3 422 421 416
3 416 115 422
3 421 116 416
3 422 34 421
3 424 423 418
3 418 117 424
3 423 115 418
3 424 35 423
3 427 425 426
3 426 109 427
3 425 116 426
3 427 118 425
3 421 399 426
3 426 116 421
3 399 109 426
3 421 34 399
3 428 420 425
3 425 118 428
3 420 116 425
3 428 36 420
3 400 429 427
3 427 109 400
3 429 118 427
3 400 8 429
3 432 430 431
3 431 119 432
3 430 115 431
3 432 114 430
3 423 433 431
3 431 115 423
3 433 119 431
3 423 35 433
3 412 422 430
3 430 114 412
3 422 115 430
3 412 34 422
3 434 415 432
3 432 119 434
3 415 114 432
3 434 11 415
3 437 435 436
3 436 121 437
3 435 117 436
3 437 120 435
3 419 438 436
3 436 117 419
3 438 121 436
3 419 36 438
3 439 424 435
3 435 120 439
3 424 117 435
3 439 35 424
3 441 440 437
3 437 121 441
3 440 120 437
3 441 1 440
3 444 442 443
3 443 124 444
3 442 123 443
3 444 122 442
3 446 445 443
3 443 123 446
3 445 124 443
3 446 39 445
3 448 447 442
3 442 122 448
3 447 123 442
3 448 38 447
3 450 449 444
3 444 124 450
3 449 122 444
3 450 37 449
3 453 451 452
3 452 126 453
3 451 123 452
3 453 125 451
3 447 454 452
3 452 123 447
3 454 126 452
3 447 38 454
3 455 446 451
3 451 125 455
3 446 123 451
3 455 39 446
3 457 456 453
3 453 126 457
3 456 125 453
3 457 9 456
3 460 458 459
3 459 128 460
3 458 122 459
3 460 127 458
3 449 461 459
3 459 122 449
3 461 128 459
3 449 37 461
3 462 448 458
3 458 127 462
3 448 122 458
3 462 38 448
3 464 463 460
3 460 128 464
3 463 127 460
3 464 10 463
3 467 465 466
3 466 130 467
3 465 124 466
3 467 129 465
3 445 468 466
3 466 124 445
3 468 130 466
3 445 39 468
3 469 450 465
3 465 129 469
3 450 124 465
3 469 37 450
3 471 470 467
3 467 130 471
3 470 129 467
3 471 3 470
3 474 472 473
3 473 133 474
3 472 132 473
3 474 131 472
3 476 475 473
3 473 132 476
3 475 133 473
3 476 38 475
3 478 477 472
3 472 131 478
3 477 132 472
3 478 41 477
3 480 479 474
3 474 133 480
3 479 131 474
3 480 40 479
3 483 481 482
3 482 134 483
3 481 132 482
3 483 126 481
3 477 484 482
3 482 132 477
3 484 134 482
3 477 41 484
3 454 476 481
3 481 126 454
3 476 132 481
3 454 38 476
3 485 457 483
3 483 134 485
3 457 126 483
3 485 9 457
3 488 486 487
3 487 136 488
3 486 131 487
3 488 135 486
3 479 489 487
3 487 131 479
3 489 136 487
3 479 40 489
3 490 478 486
3 486 135 490
3 478 131 486
3 490 41 478
3 492 491 488
3 488 136 492
3 491 135 488
3 492 2 491
3 495 493 494
3 494 127 495
3 493 133 494
3 495 137 493
3 475 462 494
3 494 133 475
3 462 127 494
3 475 38 462
3 496 480 493
3 493 137 496
3 480 133 493
3 496 40 480
3 463 497 495
3 495 127 463
3 497 137 495
3 463 10 497
3 500 498 499
3 499 140 500
3 498 139 499
3 500 138 498
3 502 501 499
3 499 139 502
3 501 140 499
3 502 33 501
3 504 503 498
3 498 138 504
3 503 139 498
3 504 13 503
3 506 505 500
3 500 140 506
3 505 138 500
3 506 23 505
3 509 507 508
3 508 47 509
3 507 139 508
3 509 110 507
3 503 182 508
3 508 139 503
3 182 47 508
3 503 13 182
3 398 502 507
3 507 110 398
3 502 139 507
3 398 33 502
3 183 401 509
3 509 47 183
3 401 110 509
3 183 8 401
3 512 510 511
3 511 79 512
3 510 138 511
3 512 46 510
3 505 294 511
3 511 138 505
3 294 79 511
3 505 23 294
3 174 504 510
3 510 46 174
3 504 138 510
3 174 13 504
3 295 177 512
3 512 79 295
3 177 46 512
3 295 4 177
3 515 513 514
3 514 111 515
3 513 140 514
3 515 78 513
3 501 406 514
3 514 140 501
3 406 111 514
3 501 33 406
3 286 506 513
3 513 78 286
3 506 140 513
3 286 23 506
3 407 289 515
3 515 111 407
3 289 78 515
3 407 0 289
3 518 516 517
3 517 143 518
3 516 142 517
3 518 141 516
3 520 519 517
3 517 142 520
3 519 143 517
3 520 19 519
3 522 521 516
3 516 141 522
3 521 142 516
3 522 32 521
3 524 523 518
3 518 143 524
3 523 141 518
3 524 26 523
3 527 525 526
3 526 113 527
3 525 142 526
3 527 66 525
3 521 413 526
3 526 142 521
3 413 113 526
3 521 32 413
3 244 520 525
3 525 66 244
3 520 142 525
3 244 19 520
3 414 247 527
3 527 113 414
3 247 66 527
3 414 11 247
3 530 528 529
3 529 86 530
3 528 141 529
3 530 112 528
3 523 316 529
3 529 141 523
3 316 86 529
3 523 26 316
3 405 522 528
3 528 112 405
3 522 141 528
3 405 32 522
3 317 408 530
3 530 86 317
3 408 112 530
3 317 0 408
3 533 531 532
3 532 61 533
3 531 143 532
3 533 89 531
3 519 231 532
3 532 143 519
3 231 61 532
3 519 19 231
3 326 524 531
3 531 89 326
3 524 143 531
3 326 26 524
3 232 329 533
3 533 61 232
3 329 89 533
3 232 5 329
3 536 534 535
3 535 146 536
3 534 145 535
3 536 144 534
3 538 537 535
3 535 145 538
3 537 146 535
3 538 22 537
3 540 539 534
3 534 144 540
3 539 145 534
3 540 16 539
3 542 541 536
3 536 146 542
3 541 144 536
3 542 39 541
3 545 543 544
3 544 54 545
3 543 145 544
3 545 80 543
3 539 204 544
3 544 145 539
3 204 54 544
3 539 16 204
3 293 538 543
3 543 80 293
3 538 145 543
3 293 22 538
3 205 296 545
3 545 54 205
3 296 80 545
3 205 4 296
3 548 546 547
3 547 125 548
3 546 144 547
3 548 57 546
3 541 455 547
3 547 144 541
3 455 125 547
3 541 39 455
3 214 540 546
3 546 57 214
3 540 144 546
3 214 16 540
3 456 217 548
3 548 125 456
3 217 57 548
3 456 9 217
3 551 549 550
3 550 81 551
3 549 146 550
3 551 130 549
3 537 301 550
3 550 146 537
3 301 81 550
3 537 22 301
3 468 542 549
3 549 130 468
3 542 146 549
3 468 39 542
3 302 471 551
3 551 81 302
3 471 130 551
3 302 3 471
3 554 552 553
3 553 149 554
3 552 148 553
3 554 147 552
3 556 555 553
3 553 148 556
3 555 149 553
3 556 21 555
3 558 557 552
3 552 147 558
3 557 148 552
3 558 25 557
3 560 559 554
3 554 149 560
3 559 147 554
3 560 37 559
3 563 561 562
3 562 88 563
3 561 148 562
3 563 70 561
3 557 327 562
3 562 148 557
3 327 88 562
3 557 25 327
3 260 556 561
3 561 70 260
3 556 148 561
3 260 21 556
3 328 261 563
3 563 88 328
3 261 70 563
3 328 5 261
3 566 564 565
3 565 129 566
3 564 147 565
3 566 87 564
3 559 469 565
3 565 147 559
3 469 129 565
3 559 37 469
3 321 558 564
3 564 87 321
3 558 147 564
3 321 25 558
3 470 322 566
3 566 129 470
3 322 87 566
3 470 3 322
3 569 567 568
3 568 71 569
3 567 149 568
3 569 128 567
3 555 266 568
3 568 149 555
3 266 71 568
3 555 21 266
3 461 560 567
3 567 128 461
3 560 149 567
3 461 37 560
3 267 464 569
3 569 71 267
3 464 128 569
3 267 10 464
3 572 570 571
3 571 152 572
3 570 151 571
3 572 150 570
3 574 573 571
3 571 151 574
3 573 152 571
3 574 27 573
3 576 575 570
3 570 150 576
3 575 151 570
3 576 12 575
3 578 577 572
3 572 152 578
3 577 150 572
3 578 36 577
3 581 579 580
3 580 49 581
3 579 151 580
3 581 96 579
3 575 189 580
3 580 151 575
3 189 49 580
3 575 12 189
3 349 574 579
3 579 96 349
3 574 151 579
3 349 27 574
3 190 352 581
3 581 49 190
3 352 96 581
3 190 7 352
3 584 582 583
3 583 118 584
3 582 150 583
3 584 48 582
3 577 428 583
3 583 150 577
3 428 118 583
3 577 36 428
3 181 576 582
3 582 48 181
3 576 150 582
3 181 12 576
3 429 184 584
3 584 118 429
3 184 48 584
3 429 8 184
3 587 585 586
3 586 97 587
3 585 152 586
3 587 121 585
3 573 357 586
3 586 152 573
3 357 97 586
3 573 27 357
3 438 578 585
3 585 121 438
3 578 152 585
3 438 36 578
3 358 441 587
3 587 97 358
3 441 121 587
3 358 1 441
3 590 588 589
3 589 155 590
3 588 154 589
3 590 153 588
3 592 591 589
3 589 154 592
3 591 155 589
3 592 17 591
3 594 593 588
3 588 153 594
3 593 154 588
3 594 30 593
3 596 595 590
3 590 155 596
3 595 153 590
3 596 35 595
3 599 597 598
3 598 104 599
3 597 154 598
3 599 64 597
3 593 383 598
3 598 154 593
3 383 104 598
3 593 30 383
3 237 592 597
3 597 64 237
3 592 154 597
3 237 17 592
3 384 240 599
3 599 104 384
3 240 64 599
3 384 6 240
3 602 600 601
3 601 120 602
3 600 153 601
3 602 103 600
3 595 439 601
3 601 153 595
3 439 120 601
3 595 35 439
3 377 594 600
3 600 103 377
3 594 153 600
3 377 30 594
3 440 378 602
3 602 120 440
3 378 103 602
3 440 1 378
3 605 603 604
3 604 65 605
3 603 155 604
3 605 119 603
3 591 245 604
3 604 155 591
3 245 65 604
3 591 17 245
3 433 596 603
3 603 119 433
3 596 155 603
3 433 35 596
3 246 434 605
3 605 65 246
3 434 119 605
3 246 11 434
3 608 606 607
3 607 158 608
3 606 157 607
3 608 156 606
3 610 609 607
3 607 157 610
3 609 158 607
3 610 15 609
3 612 611 606
3 606 156 612
3 611 157 606
3 612 28 611
3 614 613 608
3 608 158 614
3 613 156 608
3 614 41 613
3 617 615 616
3 616 95 617
3 615 157 616
3 617 55 615
3 611 350 616
3 616 157 611
3 350 95 616
3 611 28 350
3 209 610 615
3 615 55 209
3 610 157 615
3 209 15 610
3 351 210 617
3 617 95 351
3 210 55 617
3 351 7 210
3 620 618 619
3 619 135 620
3 618 156 619
3 620 94 618
3 613 490 619
3 619 156 613
3 490 135 619
3 613 41 490
3 342 612 618
3 618 94 342
3 612 156 618
3 342 28 612
3 491 345 620
3 620 135 491
3 345 94 620
3 491 2 345
3 623 621 622
3 622 56 623
3 621 158 622
3 623 134 621
3 609 215 622
3 622 158 609
3 215 56 622
3 609 15 215
3 484 614 621
3 621 134 484
3 614 158 621
3 484 41 614
3 216 485 623
3 623 56 216
3 485 134 623
3 216 9 485
3 626 624 625
3 625 161 626
3 624 160 625
3 626 159 624
3 628 627 625
3 625 160 628
3 627 161 625
3 628 31 627
3 630 629 624
3 624 159 630
3 629 160 624
3 630 20 629
3 632 631 626
3 626 161 632
3 631 159 626
3 632 40 631
3 635 633 634
3 634 73 635
3 633 160 634
3 635 105 633
3 629 272 634
3 634 160 629
3 272 73 634
3 629 20 272
3 382 628 633
3 633 105 382
3 628 160 633
3 382 31 628
3 273 385 635
3 635 73 273
3 385 105 635
3 273 6 385
3 638 636 637
3 637 137 638
3 636 159 637
3 638 72 636
3 631 496 637
3 637 159 631
3 496 137 637
3 631 40 496
3 265 630 636
3 636 72 265
3 630 159 636
3 265 20 630
3 497 268 638
3 638 137 497
3 268 72 638
3 497 10 268
3 641 639 640
3 640 102 641
3 639 161 640
3 641 136 639
3 627 372 640
3 640 161 627
3 372 102 640
3 627 31 372
3 489 632 639
3 639 136 489
3 632 161 639
3 489 40 632
3 373 492 641
3 641 102 373
3 492 136 641
3 373 2 492
