# vtk DataFile Version 1.0

ASCII
DATASET POLYDATA
POINTS 642 float
-17.4935074 18.306263 7.2925148
-0.923886418 19.911911 6.10021496
-5.80378771 4.47330618 0.926578283
-23.5531712 3.62626863 0.851403713
-18.233387 8.36482239 13.8105907
-16.6712284 12.9284735 -3.05048585
-6.01494169 14.3921347 -4.55129957
-6.25987577 8.61059093 12.9915066
-9.46399879 23.2642632 15.0022058
-14.9044418 -1.69555247 4.75569296
-16.2413063 -0.495609134 -8.50768471
-8.88451958 28.7025833 1.46042895
-7.03762579 16.1191006 16.0751362
-14.5675898 16.5996437 16.8072548
-12.7326632 7.79949093 15.7657833
-10.4516029 2.03954339 9.67712212
-18.0281696 0.956660926 10.9452496
-5.72903585 23.4400539 -3.02960277
-11.9576273 13.0695314 -4.92578793
-11.8518457 20.3196239 0.0279614218
-11.5952654 5.54056215 -6.27210331
-18.4279442 5.9226737 -7.2724967
-21.9729767 4.45050144 7.84335423
-18.4855328 14.3458748 11.5476408
-21.0192833 10.359808 4.10328341
-21.3975449 7.32675505 -2.63982344
-17.1288242 16.1851673 1.77507877
-2.59368134 15.0105715 11.0158291
-5.24730062 6.13722801 7.02743435
-1.47886634 12.0230865 3.42367625
-1.78854489 19.1181641 -0.855524063
-4.65823364 8.46234131 -3.18974185
-13.6802111 24.1885338 5.22249365
-14.9459295 23.6456127 12.761796
-7.92053652 28.7379513 8.94757843
-2.65864682 27.4479656 2.55568051
-3.48188019 23.1260967 11.3975506
-24.6121426 0.550162852 -7.15587568
-16.272049 -4.50796175 -3.04169965
-21.4650059 -1.14249909 2.71584201
-9.56612778 -0.462322325 -4.66974878
-9.16178131 -1.49559081 2.48606014
-10.9437609 16.1226921 17.2028122
-13.5109358 12.1269197 17.2209148
-9.83509827 11.7581902 16.4200096
-15.7799034 7.66064548 15.6212397
-16.4682236 12.5885725 15.7407141
-12.2916374 20.1212234 16.6462955
-8.13130093 19.8717194 15.8891573
-6.34035873 12.2808533 15.0411263
-9.20213604 7.89573526 14.6554432
-11.4695797 4.59554768 13.1749487
-15.2922392 4.07735348 13.7150574
-14.1107044 1.21069336 11.031251
-18.5083466 4.41117001 12.585084
-8.2666502 5.15833282 11.4708405
-12.5593185 -0.358305246 7.52770996
-16.4240837 -0.863659084 8.25292873
-8.82564926 18.580307 -3.19108987
-11.4596758 16.8992825 -2.38871169
-9.24984932 22.1542931 -1.82203805
-14.0806065 16.2633133 -1.00709748
-14.3167706 13.2504292 -4.21252251
-9.16047096 14.2484074 -4.58779716
-5.79544163 19.0194702 -4.00738668
-7.55798626 26.5081234 -1.50649548
-10.6263771 24.6764946 0.444581091
-14.8520298 5.69620085 -7.70208073
-15.2787275 9.05013371 -5.8575983
-11.8061266 9.52459717 -5.51964569
-17.4008312 9.51460552 -5.00393677
-17.5693512 3.28967214 -9.29117298
-13.2421207 2.58805084 -8.2992754
-8.83341408 9.89321995 -4.86675692
-20.209547 9.28083229 9.58110523
-19.5622787 11.88062 7.83767605
-21.6979866 7.90724134 6.24167204
-18.8056431 14.0843029 5.8927207
-18.1654434 16.3415661 9.45794964
-18.6467686 11.3651628 12.786869
-20.1833458 6.59308481 10.9113846
-22.9971848 3.94118643 4.49021196
-22.641983 7.3251791 2.36342311
-21.7654209 9.41665649 0.492048413
-19.0716572 13.0992851 2.94274473
-19.722826 11.7350283 -0.335785508
-17.4845219 17.4232235 4.36272955
-22.9567165 5.30474472 -1.72047579
-19.2742863 10.7011538 -2.8483336
-16.7852669 14.5389977 -0.435424477
-3.2019515 10.4078569 9.17335606
-2.70347023 8.9026804 5.58983088
-1.36962414 13.1150923 7.43016195
-3.15323973 8.00532436 2.18212724
-5.31168461 5.20828629 3.98609304
-5.60519266 7.1995635 10.0689354
-4.2331605 11.8010492 12.2750883
-1.2189362 17.2452583 8.73063278
-0.907407224 15.8774385 4.84185982
-1.63062036 15.463685 1.14002073
-2.82159424 10.2583456 -0.196571589
-3.01776433 13.5178986 -2.03525305
-4.93864584 6.30951166 -1.29917109
-1.06095791 19.4896278 2.51452041
-3.51857662 16.874773 -3.48664498
-5.19079113 11.2363567 -4.25223064
-14.3900223 25.0652962 8.98696423
-11.8260899 27.3445492 11.6589556
-11.3588238 28.3644791 7.0847683
-8.31948853 26.4395142 12.3408031
-12.6166983 23.9670067 14.7824507
-16.5390129 21.1833 9.8544445
-15.8604918 21.3647594 6.33586836
-11.6097212 26.338747 3.4116199
-7.89509821 29.8470955 4.71982479
-4.73169184 29.14748 5.39066935
-5.06993484 26.5584717 9.81703854
-2.33486915 25.7317657 7.16579962
-6.08550358 23.3455429 13.4711905
-5.23652935 29.1021881 0.656624734
-1.25198555 23.6951885 4.8038888
-1.62106609 21.7201729 9.02820969
-21.3299084 -3.13948059 -5.51905346
-19.0301723 -3.32250643 -0.454226732
-23.1165295 -1.40941691 -2.41132188
-18.0781612 -1.7809993 3.8362329
-15.4184942 -3.37124848 1.11963391
-16.2054825 -3.22266865 -6.43837357
-21.0239296 0.0231045969 -8.94694805
-24.4764862 1.75377393 -2.61874819
-23.5216026 0.870466113 2.1026032
-8.95496845 -2.16255522 -1.29854465
-12.3931112 -3.93556023 -0.405683279
-12.3908138 -3.81834841 -4.36203957
-11.824192 -1.89620149 3.68235874
-7.1436553 0.939611256 1.74735737
-7.38195372 1.71536756 -1.70198321
-12.441082 -0.739640117 -7.13268614
-17.1793861 15.7809267 14.4860592
-15.1958942 20.4194717 15.250494
-17.1659203 19.2434521 12.3212767
-15.5160627 20.3567238 3.58674693
-12.9417524 22.4456921 2.39748788
-14.676815 18.5223255 1.03194761
-19.9252148 -0.813229859 7.2115283
-20.7153549 2.33091092 9.83973217
-22.6196156 0.722424626 5.72158575
-23.9331722 3.96095157 -5.78893328
-19.8351173 7.18722105 -4.606359
-21.7116089 3.63380456 -9.2376852
-4.88028669 19.8450336 14.6283007
-4.33037138 15.71558 14.2724752
-2.56272221 19.2809277 11.6832628
-1.4430151 23.3856354 1.20043707
-3.13775826 21.328516 -2.80482054
-3.81810522 26.4389381 -1.14444935
-7.21643496 2.121943 4.83556604
-7.69507742 3.60853195 8.37760544
-9.54821873 0.277642995 6.10606766
-10.0664129 2.92180014 -5.91228294
-8.02599335 7.19067574 -4.36473036
-7.40665627 4.47405815 -3.30307603
-12.1694412 14.0612431 17.4028072
-11.6542559 11.9938021 17.0197544
-10.2999477 13.978817 16.950222
-11.3651695 9.84300613 16.3281765
-12.9914513 10.1324024 16.7604275
-13.8825407 14.3145142 17.2740116
-12.8085737 16.1506176 17.3763123
-9.06835842 15.9809752 16.6747665
-8.55327702 14.045269 16.3920326
-14.5555925 9.99752426 16.6415768
-15.0115061 12.3260727 16.7792702
-15.8468084 10.2802525 16.1351566
-15.4456968 14.5738945 16.4881649
-14.2573519 7.89959717 15.9878817
-16.9615822 8.09891224 15.0394735
-17.1210632 10.3168583 15.1005077
-11.6618996 18.0488949 17.1375828
-9.61784649 17.955061 16.7071209
-10.3385849 19.6175785 16.5970592
-7.58499146 17.9607773 16.1296806
-13.4602175 18.2839508 16.9462891
-10.7976284 21.5296764 16.0842266
-8.95238686 21.4007072 15.6525545
-8.01803875 12.1403732 15.8497887
-9.52871513 9.81103611 15.721777
-7.83457708 10.1081057 15.1263647
-10.9213152 7.91551447 15.3244371
-6.76394033 14.1550999 15.7587032
-6.45166397 10.2165375 14.2816191
-7.66934061 8.31142807 14.0717907
-13.3069744 4.27184725 13.5791521
-14.5961914 2.54445314 12.4664087
-12.6655436 2.82320666 12.0937796
-16.0570126 1.10730767 11.3535833
-16.5094662 2.48540068 12.4896498
-13.9908762 5.81572676 14.8369684
-12.0962963 6.10429049 14.5850344
-11.0542202 3.16386628 11.5471516
-12.1785173 1.74596643 10.6627998
-16.9490871 4.13944292 13.425107
-15.5050535 5.85538387 14.8719292
-17.1627903 6.02535343 14.2850094
-18.1892433 2.54115987 11.9768705
-18.3476505 6.45065928 13.3996286
-10.3294535 6.21377182 13.9925289
-9.80018139 4.73354769 12.3559122
-8.62275219 6.42813015 13.2092791
-9.56818581 3.56524086 10.8139477
-7.22564793 6.92349052 12.4407272
-13.1821995 0.424281865 9.46485901
-15.2851849 0.042735301 9.86105633
-14.3845568 -0.595988512 8.17759609
-17.2467232 -0.110671431 9.84735012
-11.4966211 0.79578054 8.79517269
-13.7884912 -1.13471508 6.3072753
-15.6080065 -1.26657867 6.61246061
-10.3095293 17.7972183 -2.67459464
-10.4521065 19.5810833 -1.6858865
-9.05058002 20.372612 -2.45803595
-10.574502 21.0754147 -0.931891978
-11.5015774 18.8386097 -1.1261363
-11.4764833 15.0742788 -3.72930408
-10.1914005 16.0732594 -3.65790009
-7.39190292 21.0502815 -3.12766767
-7.63886595 22.8156586 -2.6435492
-12.6502581 16.7115993 -1.62482834
-12.7019978 14.9198599 -3.21576762
-13.9097471 14.8860779 -2.46070147
-13.1345091 13.1742086 -4.6823802
-12.8130426 18.2141285 -0.447777063
-15.2532673 14.461257 -2.00766373
-15.4399233 13.221303 -3.61911488
-8.90451622 16.4344196 -3.9327929
-7.30123806 19.0260067 -3.664011
-7.41179514 16.7637367 -4.18319368
-5.74080563 21.305191 -3.51726747
-10.5766373 13.8993778 -4.64285946
-7.63784981 14.456028 -4.59151268
-6.00279951 16.6090431 -4.37099504
-8.57014465 24.2184334 -1.81157959
-10.1329269 23.2615204 -0.678305209
-9.28949547 25.7505703 -0.716345847
-11.184391 22.4121876 0.283184528
-6.82494164 24.8688126 -2.41653872
-8.34741306 27.8136368 -0.198272675
-9.95749378 26.867012 0.765724957
-14.9276686 7.19993925 -6.56003857
-13.6188002 9.18635082 -5.84349203
-13.4598637 7.34611416 -6.22793961
-12.0360231 11.3847218 -5.44133997
-13.795927 11.1144733 -5.56360912
-16.5647202 7.10716867 -6.47760153
-16.449482 5.97960711 -7.60114717
-13.3178825 5.72823858 -7.11150312
-12.0003881 7.22477865 -5.80421638
-14.6883097 11.6818542 -5.25571632
-16.2924728 9.36618137 -5.53652382
-16.0629749 11.6883974 -4.75949526
-17.7215881 7.43377113 -5.80936813
-17.1485195 11.4822159 -4.23750162
-16.0286102 4.67872524 -8.69475937
-14.015192 4.3313942 -8.30493355
-15.3831177 3.06331849 -9.02067947
-12.4371653 4.26370144 -7.48155117
-17.8046875 4.89494801 -8.61088753
-16.6838932 1.43234718 -9.15380001
-14.6827202 1.20573628 -8.69882488
-10.4429884 9.52330208 -5.1915884
-10.4903431 12.0390749 -5.13254118
-8.98770332 12.0306835 -4.92200756
-10.3662901 7.57409573 -5.14586782
-7.40488005 12.3688831 -4.74172783
-19.9184132 10.6480141 8.72885132
-20.6636066 9.8452158 7.01254559
-20.9820061 8.48371696 7.94583273
-21.4122906 9.22462749 5.31980276
-20.3011913 10.9291677 6.02593374
-19.0414219 12.925765 9.66022301
-19.2887974 11.674015 10.3507347
-21.1762581 7.01473522 8.65557384
-21.8575821 6.4061265 7.12718916
-19.2107525 12.9672537 6.86410189
-18.7985668 14.0265608 8.70677757
-18.5082531 15.1173391 7.66452122
-18.3993969 15.2573204 10.4992208
-19.7573929 12.0402813 5.14533329
-18.1777935 16.121767 6.51781511
-17.8901787 17.270401 8.29204941
-19.4292908 10.3462315 11.1708727
-20.327013 7.91563988 10.2579784
-19.3923683 8.99191284 11.9280634
-21.1392956 5.5878191 9.33996964
-18.7038689 12.746788 11.9832344
-18.399559 10.0036211 13.518446
-19.2284298 7.51484919 12.4231768
-22.4232178 5.9823966 5.42228556
-22.2303448 7.70397902 4.43171167
-22.7908745 5.8904624 3.66168332
-22.0093708 8.93409538 3.19228387
-22.5506172 4.17147493 6.24479961
-23.2571621 4.05333233 2.76109123
-23.0433369 5.56431723 1.68646264
-20.3697014 11.3956213 1.96622252
-19.221035 12.6231375 1.39127135
-20.7644958 10.7510862 0.224031359
-18.2636356 13.6394567 0.868993521
-18.1052094 14.5278816 2.15667963
-20.2154007 11.536377 3.48043275
-21.4811611 10.0226021 2.12375283
-21.7127972 8.4935379 -1.10335648
-20.8804379 9.73155975 -1.49104559
-18.1788216 15.1439114 3.56957698
-19.0154076 13.425519 4.40164614
-18.2208748 15.6226997 4.99489117
-17.3842278 16.7852821 3.00114322
-17.5525055 17.7961674 5.79952002
-22.3408508 8.35351467 1.2320435
-22.3518848 7.27549505 -0.66171062
-22.801075 6.42054462 0.303090572
-22.2084541 6.25969791 -2.38480067
-23.313612 4.65530634 -0.34093675
-19.7413082 11.1496506 -1.65422225
-18.246151 13.1216087 -0.439279944
-18.1900425 12.5954838 -1.74951863
-17.0650997 15.1834936 0.683816433
-20.4731083 9.02102089 -2.66322064
-17.908884 12.0712423 -2.97776389
-16.6654778 13.8044357 -1.63164008
-2.84651423 9.53909397 7.38631296
-1.83676291 10.9373045 6.5247817
-2.18561554 11.6431742 8.31481457
-1.25325274 12.3576031 5.53468609
-1.76718616 10.5139618 4.74762249
-3.89639139 7.6600461 6.56980944
-3.99085093 8.32096004 8.14733028
-2.68285131 12.6517773 9.99269009
-1.89663017 13.8008404 9.21226978
-2.7783742 8.49764538 3.92650247
-3.98641586 7.05518246 4.88030624
-4.18111086 6.61843157 3.17477202
-5.17175245 5.72441769 5.53840399
-2.08903933 10.000453 2.94545412
-4.4899869 6.2588644 1.52434337
-5.52484846 4.79113388 2.4448874
-4.40144777 8.76864719 9.71867752
-3.67208695 11.115613 10.6937256
-4.75415087 9.51485538 11.3635845
-3.33240652 13.452733 11.6171837
-5.31520271 6.72268152 8.50095558
-5.85909176 7.868958 11.5834265
-5.24222422 10.2880335 12.9338951
-1.21656811 15.1265383 8.20400143
-0.957507253 14.3962831 6.1874876
-0.863708675 16.5298805 6.8394227
-1.09931922 13.8585701 4.21285677
-1.828004 15.9776306 9.92383003
-0.933295906 18.5030632 7.39061975
-0.86045748 17.8646641 5.45937872
-2.07333541 12.7912302 0.875143409
-2.81501746 11.9133425 -0.932706058
-2.22975183 14.417531 -0.257831186
-3.62142158 11.0328207 -2.65397549
-3.63812542 9.33322144 -2.00303578
-2.05611753 11.2868137 1.66166639
-1.52977824 13.5857887 2.26053333
-1.71918225 17.2029991 0.0273292996
-2.38216233 16.0290298 -1.34487629
-3.59001565 8.19846344 -0.783381999
-2.74030662 9.18580055 1.14277661
-3.92728758 7.15061092 0.381162047
-4.60227966 7.34629631 -2.24362874
-5.30587339 5.46279287 -0.15053314
-1.19003522 15.5236588 2.93696022
-1.28579462 17.4760151 1.67879367
-1.01657879 17.5402298 3.53221464
-1.29446948 19.4537182 0.749069631
-0.952307582 19.5924969 4.31972694
-3.17944551 15.2199602 -2.81832528
-3.89061618 12.4882526 -3.41947818
-4.24572182 14.0591545 -3.98880148
-4.71053505 9.90370464 -3.75311422
-2.54180264 17.9315567 -2.19436193
-4.72105694 15.6595535 -4.27352381
-5.6251893 12.7740641 -4.48562288
-13.3436308 26.756216 10.2676716
-11.8645506 28.0479584 9.44944382
-13.0171604 27.0622005 8.37031937
-9.98266506 28.9012718 8.34143543
-10.1232414 28.2629814 10.4147215
-13.4661226 25.9489956 12.2146931
-14.5484257 24.958807 11.0162287
-13.7073498 25.4532928 7.08423185
-12.55756 26.8823261 6.2901659
-10.0961962 27.145525 12.235095
-12.1099882 25.9387722 13.3752136
-10.5102148 25.5942287 13.7877159
-13.7970457 24.3084583 13.7791386
-8.1664362 27.7848549 10.7359142
-8.60933781 24.9399109 13.6921883
-10.8943253 23.8697605 14.9926605
-15.4656897 23.2352066 9.59576225
-14.9528923 23.4049625 7.52681017
-16.1400471 21.5064125 8.05810356
-14.6609125 23.099411 6.0033927
-15.7872038 22.7460995 11.3246851
-17.0327435 19.775095 8.57220364
-16.7932053 19.834837 6.77777624
-11.313509 27.7665367 4.96274567
-9.78460026 29.1590805 5.9156251
-9.84033203 28.8043861 3.82177734
-8.11195564 29.4475689 6.94755173
-12.6506033 25.4786777 4.5796423
-10.5157623 27.3753185 2.3810935
-8.25282764 29.5884972 2.73849416
-4.77023268 28.024353 7.62686491
-3.61946225 26.5416374 8.28547668
-3.36658168 27.6222115 6.25816679
-2.82350802 24.7697697 9.16556931
-3.99497056 25.0762691 10.3045502
-6.29766321 27.8726559 9.30470371
-6.20128679 28.9974098 7.34523869
-3.41320467 28.4891491 4.02363253
-2.33791375 26.7400036 5.0494976
-5.37447405 25.0456753 11.6001911
-6.70466471 26.6774044 11.0655584
-6.97223377 25.0030785 12.777689
-4.65722895 23.3888645 12.4190359
-7.76460457 23.1792545 14.4027414
-6.32110167 29.7340069 5.45060253
-4.67437744 29.5849667 3.20405602
-6.44298029 30.0050182 2.73718786
-3.8281455 28.8184929 1.69172359
-7.00966167 29.2954903 0.876910806
-1.62825346 24.7684307 6.17347574
-1.87667489 23.7268009 8.35835648
-1.24042356 22.6139221 6.97739315
-2.4799366 22.7430305 10.2359076
-1.75776672 25.6045799 3.80646992
-1.03014278 21.7358398 5.55032635
-1.1210562 20.6769924 7.69873047
-20.0011692 -3.67206478 -2.57883215
-21.0320778 -2.53477216 -1.10335886
-22.2389965 -2.63371253 -3.85525584
-22.0419159 -1.47917664 -0.0622277409
-20.3737946 -2.10181141 0.909669101
-18.0278568 -4.26441383 -2.20476055
-19.2489014 -3.94090009 -4.53507328
-23.3166924 -1.72733676 -6.52813721
-24.1194992 -1.05178046 -4.93588877
-18.5213337 -2.47669601 1.62862587
-17.2944088 -3.65798593 0.048987668
-16.6917171 -2.598279 2.19654894
-15.853097 -4.29323769 -0.916422725
-19.8096676 -1.61110139 3.19779205
-16.502224 -1.78549159 4.35487986
-14.9909554 -2.38548326 2.96241951
-19.1734123 -3.19122434 -6.45701838
-21.5812607 -1.91232538 -7.56122398
-18.9744568 -1.90591466 -7.90107679
-23.2556915 0.03732289 -8.34179878
-16.5544262 -4.08495522 -4.88838243
-15.9110737 -2.04119253 -7.56799555
-18.2920475 -0.383877546 -8.77962017
-24.0725994 -0.113194011 -2.43839025
-23.1784153 -0.419929773 0.174908012
-23.9883327 1.35384429 -0.213797867
-22.6790981 -0.512175143 1.98013008
-24.8705959 0.653847992 -4.72335672
-23.9491997 2.76272202 -0.729265392
-23.6784515 2.28464317 1.69323218
-10.5613804 -3.45290923 -1.12384498
-12.290926 -4.25792456 -2.34645987
-10.5812874 -3.42510819 -2.82001114
-14.2044697 -4.40004301 -3.6675961
-14.1966534 -4.47362232 -1.60307503
-10.6292105 -2.95382857 0.7872774
-9.19029617 -2.24767375 0.424974561
-9.34810257 -1.94927955 -3.15585041
-10.7494678 -2.63223028 -4.53163624
-14.0002069 -3.81840348 0.353348255
-12.0568476 -2.98723674 1.60077906
-13.5601892 -2.74419284 2.31963658
-10.4695244 -1.95517766 2.87792206
-13.3239202 -1.81108165 4.2424407
-7.92795944 -0.821123183 0.179572448
-8.05749893 -0.519847572 -1.71466291
-7.18165064 1.03074193 -0.0843629465
-8.41391182 0.21983096 -3.20112109
-8.06411266 -0.687580705 1.9007796
-6.53450298 2.67825532 1.38425732
-6.60019302 3.09891176 -0.262436777
-12.3399019 -2.67029214 -5.86686707
-14.3171349 -3.71093392 -5.44134903
-14.0304337 -2.33473372 -6.93240929
-10.9544945 -0.990460873 -5.92719078
-14.2140608 -0.48558566 -8.02847099
-16.3238544 18.1655407 15.0166798
-16.465168 19.8762188 13.8846445
-17.3453884 17.532917 13.4163914
-16.2446346 21.4268646 12.6358814
-15.2597342 22.0408878 14.05511
-14.9830723 18.5920105 16.1488171
-15.9988298 16.3227959 15.8258181
-17.9382381 15.2753077 13.0313082
-17.8708935 16.8004646 11.977169
-14.0478897 22.4159813 14.995821
-13.7693834 20.3598595 16.193924
-12.1745796 22.2886753 15.7842293
-16.9070702 14.2327671 15.1497564
-18.0515785 13.5153952 13.4660625
-17.7364578 11.865571 14.3100128
-17.7353363 17.7909279 10.85742
-16.8728867 20.4513607 11.1747551
-17.4427052 18.8240662 9.6376915
-14.2148256 21.4868259 3.07105327
-13.7480001 20.4527206 1.76906359
-15.1438589 19.5363827 2.25327301
-13.2227173 19.3474636 0.595058501
-12.4237995 21.333786 1.15000522
-13.3781891 23.3994942 3.77387786
-14.5778809 22.2120972 4.42645407
-16.3850422 18.3665657 2.64389253
-16.0391045 17.5101757 1.39919662
-11.8202724 23.2651329 1.48668373
-12.3583517 24.3747005 2.99374509
-11.2093449 25.4710369 1.81712437
-15.625555 21.0892467 4.94772673
-16.6176662 18.9399261 3.8710494
-16.7345695 19.455061 5.32424974
-15.8284979 16.4789753 0.390655309
-14.3108063 17.4669971 0.02721183
-15.4631357 15.4271984 -0.774716318
-20.5835094 0.332554013 8.71667004
-21.769043 1.14856815 7.93036842
-21.5032578 -0.251942068 6.60314131
-22.418375 2.32099438 7.03280926
-21.5295296 3.20627642 8.89269638
-19.5272179 1.45798099 10.5130501
-19.0306721 -0.125722542 9.30157948
-20.749485 -1.05285156 5.02181482
-22.221014 -0.414408952 4.36660576
-20.6285896 4.51305294 10.2907667
-19.6188698 3.27861524 11.2424345
-19.4797401 5.60499334 11.9051638
-18.1953201 -0.92007941 7.96185303
-19.0865192 -1.34529686 5.54910231
-17.2556744 -1.40391612 6.1377902
-23.0730057 0.514159441 3.80681705
-22.96875 2.2748518 5.34126759
-23.3754292 2.20577979 3.47693467
-22.0248203 5.32490158 -5.9398222
-21.5635357 5.04526615 -7.58583307
-23.6638126 3.68918276 -7.96293116
-19.8431931 5.2379427 -7.96847153
-19.1299591 6.80885839 -5.61017704
-20.6769276 7.1674509 -3.75649428
-22.2396774 5.59755659 -4.04593563
-24.8627186 2.15993738 -6.48022079
-23.5281448 1.9825418 -8.80504417
-18.514492 8.42315006 -4.7512722
-19.5807457 8.89825153 -3.66336775
-18.2966805 10.5918646 -3.89682841
-23.3355961 4.61722136 -3.54436803
-24.6376095 2.55071783 -4.47938728
-23.8470116 3.62611842 -2.07203794
-21.3094559 1.8699795 -9.38120079
-19.3223553 4.11264515 -9.09928799
-18.4041996 1.55045116 -9.33874607
-4.45938015 17.8234215 14.6738701
-3.41320157 17.6519279 13.2629757
-3.62266493 19.5549355 13.4322319
-2.5962491 17.1624393 11.6629333
-3.38524008 15.6423445 12.7319803
-5.52687979 15.9155273 15.4116707
-5.84405756 17.9910851 15.5693674
-4.05126524 21.4452457 13.1742678
-2.96807694 21.1606674 11.8743668
-4.07321835 13.7733021 13.1356039
-5.21084404 14.119257 14.7571936
-5.14914942 12.0324001 13.8372097
-6.2987113 19.807003 15.3335943
-5.2969346 21.7632313 14.0148153
-6.9583931 21.6687832 14.8418369
-2.05707717 20.6148186 10.4274817
-1.84337306 18.0827522 10.2780762
-1.34160888 19.4036942 8.98009586
-2.15436053 22.9522018 -1.08742714
-3.19974875 24.000309 -2.01819754
-2.40066385 24.9603977 -0.314821571
-4.63212395 24.8473339 -2.4838891
-4.32099867 22.3215828 -3.20257735
-2.18556786 20.5294762 -1.75018227
-1.4382087 21.4361763 0.110351413
-1.8237462 25.2852707 1.90649962
-2.94530058 27.0486794 0.644406617
-4.43390656 20.0850372 -3.74011898
-3.17609978 19.0234337 -3.13018274
-4.6432724 17.7260609 -4.13162041
-1.1074717 21.3660908 1.94609654
-1.258201 23.5477695 3.03678155
-1.01977229 21.4729595 3.81966925
-4.16672182 27.9186478 -0.130044833
-5.68701124 26.289093 -1.93897462
-6.65575695 28.0976353 -0.622726381
-7.30426264 3.01273561 6.59619522
-8.55083847 1.95412493 7.32074976
-8.2548008 1.03813231 5.4814415
-9.90244484 1.19305563 7.90082026
-9.01939678 2.75521255 9.12411785
-6.50048685 4.69997692 7.59549475
-6.32893038 4.20786858 6.04109144
-8.10598755 0.115757272 3.72613907
-9.29660416 -0.620084822 4.34720087
-8.01224613 4.27618504 9.91844082
-6.57910252 5.40991926 9.11779308
-6.85638571 6.08944368 10.8050585
-6.26493073 3.7327702 4.51803112
-7.20139837 1.33332777 3.27070045
-6.3453145 3.18766594 2.94857001
-10.6256142 -0.965635478 4.93003082
-10.95436 -0.0473634005 6.89022303
-12.2241402 -1.07390594 5.66640186
-9.1488142 5.08737707 -4.82166338
-7.44843531 5.94697189 -3.85189939
-8.67358303 3.63676357 -4.49658489
-5.98143244 6.50678682 -3.12615299
-6.12259722 7.9248538 -3.90797806
-9.88431168 6.28250694 -5.08141613
-10.6783962 4.38889503 -6.11617804
-9.66044235 1.35349476 -5.38131809
-8.44816303 1.9528023 -3.9360075
-6.42607737 9.2689209 -4.34945488
-8.43650436 8.51409245 -4.65243721
-6.94767666 10.8692131 -4.64457989
-11.4390173 2.92443323 -7.12174177
-10.9188519 0.997653723 -6.58242416
-12.6111507 1.10112369 -7.81747961
-7.42458248 2.96013117 -2.5768764
-6.12205696 5.37016296 -2.21991277
-6.35656309 4.19425011 -1.12495255
POLYGONS 1280 5120
3 164 162 163
3 163 44 164
3 162 43 163
3 164 42 162
3 166 165 163
3 163 43 166
3 165 44 163
3 166 14 165
3 168 167 162
3 162 42 168
3 167 43 162
3 168 13 167
3 170 169 164
3 164 44 170
3 169 42 164
3 170 12 169
3 173 171 172
3 172 46 173
3 171 43 172
3 173 45 171
3 167 174 172
3 172 43 167
3 174 46 172
3 167 13 174
3 175 166 171
3 171 45 175
3 166 43 171
3 175 14 166
3 177 176 173
3 173 46 177
3 176 45 173
3 177 4 176
3 180 178 179
3 179 48 180
3 178 42 179
3 180 47 178
3 169 181 179
3 179 42 169
3 181 48 179
3 169 12 181
3 182 168 178
3 178 47 182
3 168 42 178
3 182 13 168
3 184 183 180
3 180 48 184
3 183 47 180
3 184 8 183
3 187 185 186
3 186 50 187
3 185 44 186
3 187 49 185
3 165 188 186
3 186 44 165
3 188 50 186
3 165 14 188
3 189 170 185
3 185 49 189
3 170 44 185
3 189 12 170
3 191 190 187
3 187 50 191
3 190 49 187
3 191 7 190
3 194 192 193
3 193 53 194
3 192 52 193
3 194 51 192
3 196 195 193
3 193 52 196
3 195 53 193
3 196 16 195
3 198 197 192
3 192 51 198
3 197 52 192
3 198 14 197
3 200 199 194
3 194 53 200
3 199 51 194
3 200 15 199
3 203 201 202
3 202 45 203
3 201 52 202
3 203 54 201
3 197 175 202
3 202 52 197
3 175 45 202
3 197 14 175
3 204 196 201
3 201 54 204
3 196 52 201
3 204 16 196
3 176 205 203
3 203 45 176
3 205 54 203
3 176 4 205
3 208 206 207
3 207 55 208
3 206 51 207
3 208 50 206
3 199 209 207
3 207 51 199
3 209 55 207
3 199 15 209
3 188 198 206
3 206 50 188
3 198 51 206
3 188 14 198
3 210 191 208
3 208 55 210
3 191 50 208
3 210 7 191
3 213 211 212
3 212 57 213
3 211 53 212
3 213 56 211
3 195 214 212
3 212 53 195
3 214 57 212
3 195 16 214
3 215 200 211
3 211 56 215
3 200 53 211
3 215 15 200
3 217 216 213
3 213 57 217
3 216 56 213
3 217 9 216
3 220 218 219
3 219 60 220
3 218 59 219
3 220 58 218
3 222 221 219
3 219 59 222
3 221 60 219
3 222 19 221
3 224 223 218
3 218 58 224
3 223 59 218
3 224 18 223
3 226 225 220
3 220 60 226
3 225 58 220
3 226 17 225
3 229 227 228
3 228 62 229
3 227 59 228
3 229 61 227
3 223 230 228
3 228 59 223
3 230 62 228
3 223 18 230
3 231 222 227
3 227 61 231
3 222 59 227
3 231 19 222
3 233 232 229
3 229 62 233
3 232 61 229
3 233 5 232
3 236 234 235
3 235 64 236
3 234 58 235
3 236 63 234
3 225 237 235
3 235 58 225
3 237 64 235
3 225 17 237
3 238 224 234
3 234 63 238
3 224 58 234
3 238 18 224
3 240 239 236
3 236 64 240
3 239 63 236
3 240 6 239
3 243 241 242
3 242 66 243
3 241 60 242
3 243 65 241
3 221 244 242
3 242 60 221
3 244 66 242
3 221 19 244
3 245 226 241
3 241 65 245
3 226 60 241
3 245 17 226
3 247 246 243
3 243 66 247
3 246 65 243
3 247 11 246
3 250 248 249
3 249 69 250
3 248 68 249
3 250 67 248
3 252 251 249
3 249 68 252
3 251 69 249
3 252 18 251
3 254 253 248
3 248 67 254
3 253 68 248
3 254 21 253
3 256 255 250
3 250 69 256
3 255 67 250
3 256 20 255
3 259 257 258
3 258 70 259
3 257 68 258
3 259 62 257
3 253 260 258
3 258 68 253
3 260 70 258
3 253 21 260
3 230 252 257
3 257 62 230
3 252 68 257
3 230 18 252
3 261 233 259
3 259 70 261
3 233 62 259
3 261 5 233
3 264 262 263
3 263 72 264
3 262 67 263
3 264 71 262
3 255 265 263
3 263 67 255
3 265 72 263
3 255 20 265
3 266 254 262
3 262 71 266
3 254 67 262
3 266 21 254
3 268 267 264
3 264 72 268
3 267 71 264
3 268 10 267
3 271 269 270
3 270 63 271
3 269 69 270
3 271 73 269
3 251 238 270
3 270 69 251
3 238 63 270
3 251 18 238
3 272 256 269
3 269 73 272
3 256 69 269
3 272 20 256
3 239 273 271
3 271 63 239
3 273 73 271
3 239 6 273
3 276 274 275
3 275 76 276
3 274 75 275
3 276 74 274
3 278 277 275
3 275 75 278
3 277 76 275
3 278 24 277
3 280 279 274
3 274 74 280
3 279 75 274
3 280 23 279
3 282 281 276
3 276 76 282
3 281 74 276
3 282 22 281
3 285 283 284
3 284 78 285
3 283 75 284
3 285 77 283
3 279 286 284
3 284 75 279
3 286 78 284
3 279 23 286
3 287 278 283
3 283 77 287
3 278 75 283
3 287 24 278
3 289 288 285
3 285 78 289
3 288 77 285
3 289 0 288
3 292 290 291
3 291 80 292
3 290 74 291
3 292 79 290
3 281 293 291
3 291 74 281
3 293 80 291
3 281 22 293
3 294 280 290
3 290 79 294
3 280 74 290
3 294 23 280
3 296 295 292
3 292 80 296
3 295 79 292
3 296 4 295
3 299 297 298
3 298 82 299
3 297 76 298
3 299 81 297
3 277 300 298
3 298 76 277
3 300 82 298
3 277 24 300
3 301 282 297
3 297 81 301
3 282 76 297
3 301 22 282
3 303 302 299
3 299 82 303
3 302 81 299
3 303 3 302
3 306 304 305
3 305 85 306
3 304 84 305
3 306 83 304
3 308 307 305
3 305 84 308
3 307 85 305
3 308 26 307
3 310 309 304
3 304 83 310
3 309 84 304
3 310 24 309
3 312 311 306
3 306 85 312
3 311 83 306
3 312 25 311
3 315 313 314
3 314 77 315
3 313 84 314
3 315 86 313
3 309 287 314
3 314 84 309
3 287 77 314
3 309 24 287
3 316 308 313
3 313 86 316
3 308 84 313
3 316 26 308
3 288 317 315
3 315 77 288
3 317 86 315
3 288 0 317
3 320 318 319
3 319 87 320
3 318 83 319
3 320 82 318
3 311 321 319
3 319 83 311
3 321 87 319
3 311 25 321
3 300 310 318
3 318 82 300
3 310 83 318
3 300 24 310
3 322 303 320
3 320 87 322
3 303 82 320
3 322 3 303
3 325 323 324
3 324 89 325
3 323 85 324
3 325 88 323
3 307 326 324
3 324 85 307
3 326 89 324
3 307 26 326
3 327 312 323
3 323 88 327
3 312 85 323
3 327 25 312
3 329 328 325
3 325 89 329
3 328 88 325
3 329 5 328
3 332 330 331
3 331 92 332
3 330 91 331
3 332 90 330
3 334 333 331
3 331 91 334
3 333 92 331
3 334 29 333
3 336 335 330
3 330 90 336
3 335 91 330
3 336 28 335
3 338 337 332
3 332 92 338
3 337 90 332
3 338 27 337
3 341 339 340
3 340 94 341
3 339 91 340
3 341 93 339
3 335 342 340
3 340 91 335
3 342 94 340
3 335 28 342
3 343 334 339
3 339 93 343
3 334 91 339
3 343 29 334
3 345 344 341
3 341 94 345
3 344 93 341
3 345 2 344
3 348 346 347
3 347 96 348
3 346 90 347
3 348 95 346
3 337 349 347
3 347 90 337
3 349 96 347
3 337 27 349
3 350 336 346
3 346 95 350
3 336 90 346
3 350 28 336
3 352 351 348
3 348 96 352
3 351 95 348
3 352 7 351
3 355 353 354
3 354 98 355
3 353 92 354
3 355 97 353
3 333 356 354
3 354 92 333
3 356 98 354
3 333 29 356
3 357 338 353
3 353 97 357
3 338 92 353
3 357 27 338
3 359 358 355
3 355 98 359
3 358 97 355
3 359 1 358
3 362 360 361
3 361 101 362
3 360 100 361
3 362 99 360
3 364 363 361
3 361 100 364
3 363 101 361
3 364 31 363
3 366 365 360
3 360 99 366
3 365 100 360
3 366 29 365
3 368 367 362
3 362 101 368
3 367 99 362
3 368 30 367
3 371 369 370
3 370 93 371
3 369 100 370
3 371 102 369
3 365 343 370
3 370 100 365
3 343 93 370
3 365 29 343
3 372 364 369
3 369 102 372
3 364 100 369
3 372 31 364
3 344 373 371
3 371 93 344
3 373 102 371
3 344 2 373
3 376 374 375
3 375 103 376
3 374 99 375
3 376 98 374
3 367 377 375
3 375 99 367
3 377 103 375
3 367 30 377
3 356 366 374
3 374 98 356
3 366 99 374
3 356 29 366
3 378 359 376
3 376 103 378
3 359 98 376
3 378 1 359
3 381 379 380
3 380 105 381
3 379 101 380
3 381 104 379
3 363 382 380
3 380 101 363
3 382 105 380
3 363 31 382
3 383 368 379
3 379 104 383
3 368 101 379
3 383 30 368
3 385 384 381
3 381 105 385
3 384 104 381
3 385 6 384
3 388 386 387
3 387 108 388
3 386 107 387
3 388 106 386
3 390 389 387
3 387 107 390
3 389 108 387
3 390 34 389
3 392 391 386
3 386 106 392
3 391 107 386
3 392 33 391
3 394 393 388
3 388 108 394
3 393 106 388
3 394 32 393
3 397 395 396
3 396 110 397
3 395 107 396
3 397 109 395
3 391 398 396
3 396 107 391
3 398 110 396
3 391 33 398
3 399 390 395
3 395 109 399
3 390 107 395
3 399 34 390
3 401 400 397
3 397 110 401
3 400 109 397
3 401 8 400
3 404 402 403
3 403 112 404
3 402 106 403
3 404 111 402
3 393 405 403
3 403 106 393
3 405 112 403
3 393 32 405
3 406 392 402
3 402 111 406
3 392 106 402
3 406 33 392
3 408 407 404
3 404 112 408
3 407 111 404
3 408 0 407
3 411 409 410
3 410 114 411
3 409 108 410
3 411 113 409
3 389 412 410
3 410 108 389
3 412 114 410
3 389 34 412
3 413 394 409
3 409 113 413
3 394 108 409
3 413 32 394
3 415 414 411
3 411 114 415
3 414 113 411
3 415 11 414
3 418 416 417
3 417 117 418
3 416 116 417
3 418 115 416
3 420 419 417
3 417 116 420
3 419 117 417
3 420 36 419
3 422 421 416
3 416 115 422
3 421 116 416
3 422 34 421
3 424 423 418
3 418 117 424
3 423 115 418
3 424 35 423
3 427 425 426
3 426 109 427
3 425 116 426
3 427 118 425
3 421 399 426
3 426 116 421
3 399 109 426
3 421 34 399
3 428 420 425
3 425 118 428
3 420 116 425
3 428 36 420
3 400 429 427
3 427 109 400
3 429 118 427
3 400 8 429
3 432 430 431
3 431 119 432
3 430 115 431
3 432 114 430
3 423 433 431
3 431 115 423
3 433 119 431
3 423 35 433
3 412 422 430
3 430 114 412
3 422 115 430
3 412 34 422
3 434 415 432
3 432 119 434
3 415 114 432
3 434 11 415
3 437 435 436
3 436 121 437
3 435 117 436
3 437 120 435
3 419 438 436
3 436 117 419
3 438 121 436
3 419 36 438
3 439 424 435
3 435 120 439
3 424 117 435
3 439 35 424
3 441 440 437
3 437 121 441
3 440 120 437
3 441 1 440
3 444 442 443
3 443 124 444
3 442 123 443
3 444 122 442
3 446 445 443
3 443 123 446
3 445 124 443
3 446 39 445
3 448 447 442
3 442 122 448
3 447 123 442
3 448 38 447
3 450 449 444
3 444 124 450
3 449 122 444
3 450 37 449
3 453 451 452
3 452 126 453
3 451 123 452
3 453 125 451
3 447 454 452
3 452 123 447
3 454 126 452
3 447 38 454
3 455 446 451
3 451 125 455
3 446 123 451
3 455 39 446
3 457 456 453
3 453 126 457
3 456 125 453
3 457 9 456
3 460 458 459
3 459 128 460
3 458 122 459
3 460 127 458
3 449 461 459
3 459 122 449
3 461 128 459
3 449 37 461
3 462 448 458
3 458 127 462
3 448 122 458
3 462 38 448
3 464 463 460
3 460 128 464
3 463 127 460
3 464 10 463
3 467 465 466
3 466 130 467
3 465 124 466
3 467 129 465
3 445 468 466
3 466 124 445
3 468 130 466
3 445 39 468
3 469 450 465
3 465 129 469
3 450 124 465
3 469 37 450
3 471 470 467
3 467 130 471
3 470 129 467
3 471 3 470
3 474 472 473
3 473 133 474
3 472 132 473
3 474 131 472
3 476 475 473
3 473 132 476
3 475 133 473
3 476 38 475
3 478 477 472
3 472 131 478
3 477 132 472
3 478 41 477
3 480 479 474
3 474 133 480
3 479 131 474
3 480 40 479
3 483 481 482
3 482 134 483
3 481 132 482
3 483 126 481
3 477 484 482
3 482 132 477
3 484 134 482
3 477 41 484
3 454 476 481
3 481 126 454
3 476 132 481
3 454 38 476
3 485 457 483
3 483 134 485
3 457 126 483
3 485 9 457
3 488 486 487
3 487 136 488
3 486 131 487
3 488 135 486
3 479 489 487
3 487 131 479
3 489 136 487
3 479 40 489
3 490 478 486
3 486 135 490
3 478 131 486
3 490 41 478
3 492 491 488
3 488 136 492
3 491 135 488
3 492 2 491
3 495 493 494
3 494 127 495
3 493 133 494
3 495 137 493
3 475 462 494
3 494 133 475
3 462 127 494
3 475 38 462
3 496 480 493
3 493 137 496
3 480 133 493
3 496 40 480
3 463 497 495
3 495 127 463
3 497 137 495
3 463 10 497
3 500 498 499
3 499 140 500
3 498 139 499
3 500 138 498
3 502 501 499
3 499 139 502
3 501 140 499
3 502 33 501
3 504 503 498
3 498 138 504
3 503 139 498
3 504 13 503
3 506 505 500
3 500 140 506
3 505 138 500
3 506 23 505
3 509 507 508
3 508 47 509
3 507 139 508
3 509 110 507
3 503 182 508
3 508 139 503
3 182 47 508
3 503 13 182
3 398 502 507
3 507 110 398
3 502 139 507
3 398 33 502
3 183 401 509
3 509 47 183
3 401 110 509
3 183 8 401
3 512 510 511
3 511 79 512
3 510 138 511
3 512 46 510
3 505 294 511
3 511 138 505
3 294 79 511
3 505 23 294
3 174 504 510
3 510 46 174
3 504 138 510
3 174 13 504
3 295 177 512
3 512 79 295
3 177 46 512
3 295 4 177
3 515 513 514
3 514 111 515
3 513 140 514
3 515 78 513
3 501 406 514
3 514 140 501
3 406 111 514
3 501 33 406
3 286 506 513
3 513 78 286
3 506 140 513
3 286 23 506
3 407 289 515
3 515 111 407
3 289 78 515
3 407 0 289
3 518 516 517
3 517 143 518
3 516 142 517
3 518 141 516
3 520 519 517
3 517 142 520
3 519 143 517
3 520 19 519
3 522 521 516
3 516 141 522
3 521 142 516
3 522 32 521
3 524 523 518
3 518 143 524
3 523 141 518
3 524 26 523
3 527 525 526
3 526 113 527
3 525 142 526
3 527 66 525
3 521 413 526
3 526 142 521
3 413 113 526
3 521 32 413
3 244 520 525
3 525 66 244
3 520 142 525
3 244 19 520
3 414 247 527
3 527 113 414
3 247 66 527
3 414 11 247
3 530 528 529
3 529 86 530
3 528 141 529
3 530 112 528
3 523 316 529
3 529 141 523
3 316 86 529
3 523 26 316
3 405 522 528
3 528 112 405
3 522 141 528
3 405 32 522
3 317 408 530
3 530 86 317
3 408 112 530
3 317 0 408
3 533 531 532
3 532 61 533
3 531 143 532
3 533 89 531
3 519 231 532
3 532 143 519
3 231 61 532
3 519 19 231
3 326 524 531
3 531 89 326
3 524 143 531
3 326 26 524
3 232 329 533
3 533 61 232
3 329 89 533
3 232 5 329
3 536 534 535
3 535 146 536
3 534 145 535
3 536 144 534
3 538 537 535
3 535 145 538
3 537 146 535
3 538 22 537
3 540 539 534
3 534 144 540
3 539 145 534
3 540 16 539
3 542 541 536
3 536 146 542
3 541 144 536
3 542 39 541
3 545 543 544
3 544 54 545
3 543 145 544
3 545 80 543
3 539 204 544
3 544 145 539
3 204 54 544
3 539 16 204
3 293 538 543
3 543 80 293
3 538 145 543
3 293 22 538
3 205 296 545
3 545 54 205
3 296 80 545
3 205 4 296
3 548 546 547
3 547 125 548
3 546 144 547
3 548 57 546
3 541 455 547
3 547 144 541
3 455 125 547
3 541 39 455
3 214 540 546
3 546 57 214
3 540 144 546
3 214 16 540
3 456 217 548
3 548 125 456
3 217 57 548
3 456 9 217
3 551 549 550
3 550 81 551
3 549 146 550
3 551 130 549
3 537 301 550
3 550 146 537
3 301 81 550
3 537 22 301
3 468 542 549
3 549 130 468
3 542 146 549
3 468 39 542
3 302 471 551
3 551 81 302
3 471 130 551
3 302 3 471
3 554 552 553
3 553 149 554
3 552 148 553
3 554 147 552
3 556 555 553
3 553 148 556
3 555 149 553
3 556 21 555
3 558 557 552
3 552 147 558
3 557 148 552
3 558 25 557
3 560 559 554
3 554 149 560
3 559 147 554
3 560 37 559
3 563 561 562
3 562 88 563
3 561 148 562
3 563 70 561
3 557 327 562
3 562 148 557
3 327 88 562
3 557 25 327
3 260 556 561
3 561 70 260
3 556 148 561
3 260 21 556
3 328 261 563
3 563 88 328
3 261 70 563
3 328 5 261
3 566 564 565
3 565 129 566
3 564 147 565
3 566 87 564
3 559 469 565
3 565 147 559
3 469 129 565
3 559 37 469
3 321 558 564
3 564 87 321
3 558 147 564
3 321 25 558
3 470 322 566
3 566 129 470
3 322 87 566
3 470 3 322
3 569 567 568
3 568 71 569
3 567 149 568
3 569 128 567
3 555 266 568
3 568 149 555
3 266 71 568
3 555 21 266
3 461 560 567
3 567 128 461
3 560 149 567
3 461 37 560
3 267 464 569
3 569 71 267
3 464 128 569
3 267 10 464
3 572 570 571
3 571 152 572
3 570 151 571
3 572 150 570
3 574 573 571
3 571 151 574
3 573 152 571
3 574 27 573
3 576 575 570
3 570 150 576
3 575 151 570
3 576 12 575
3 578 577 572
3 572 152 578
3 577 150 572
3 578 36 577
3 581 579 580
3 580 49 581
3 579 151 580
3 581 96 579
3 575 189 580
3 580 151 575
3 189 49 580
3 575 12 189
3 349 574 579
3 579 96 349
3 574 151 579
3 349 27 574
3 190 352 581
3 581 49 190
3 352 96 581
3 190 7 352
3 584 582 583
3 583 118 584
3 582 150 583
3 584 48 582
3 577 428 583
3 583 150 577
3 428 118 583
3 577 36 428
3 181 576 582
3 582 48 181
3 576 150 582
3 181 12 576
3 429 184 584
3 584 118 429
3 184 48 584
3 429 8 184
3 587 585 586
3 586 97 587
3 585 152 586
3 587 121 585
3 573 357 586
3 586 152 573
3 357 97 586
3 573 27 357
3 438 578 585
3 585 121 438
3 578 152 585
3 438 36 578
3 358 441 587
3 587 97 358
3 441 121 587
3 358 1 441
3 590 588 589
3 589 155 590
3 588 154 589
3 590 153 588
3 592 591 589
3 589 154 592
3 591 155 589
3 592 17 591
3 594 593 588
3 588 153 594
3 593 154 588
3 594 30 593
3 596 595 590
3 590 155 596
3 595 153 590
3 596 35 595
3 599 597 598
3 598 104 599
3 597 154 598
3 599 64 597
3 593 383 598
3 598 154 593
3 383 104 598
3 593 30 383
3 237 592 597
3 597 64 237
3 592 154 597
3 237 17 592
3 384 240 599
3 599 104 384
3 240 64 599
3 384 6 240
3 602 600 601
3 601 120 602
3 600 153 601
3 602 103 600
3 595 439 601
3 601 153 595
3 439 120 601
3 595 35 439
3 377 594 600
3 600 103 377
3 594 153 600
3 377 30 594
3 440 378 602
3 602 120 440
3 378 103 602
3 440 1 378
3 605 603 604
3 604 65 605
3 603 155 604
3 605 119 603
3 591 245 604
3 604 155 591
3 245 65 604
3 591 17 245
3 433 596 603
3 603 119 433
3 596 155 603
3 433 35 596
3 246 434 605
3 605 65 246
3 434 119 605
3 246 11 434
3 608 606 607
3 607 158 608
3 606 157 607
3 608 156 606
3 610 609 607
3 607 157 610
3 609 158 607
3 610 15 609
3 612 611 606
3 606 156 612
3 611 157 606
3 612 28 611
3 614 613 608
3 608 158 614
3 613 156 608
3 614 41 613
3 617 615 616
3 616 95 617
3 615 157 616
3 617 55 615
3 611 350 616
3 616 157 611
3 350 95 616
3 611 28 350
3 209 610 615
3 615 55 209
3 610 157 615
3 209 15 610
3 351 210 617
3 617 95 351
3 210 55 617
3 351 7 210
3 620 618 619
3 619 135 620
3 618 156 619
3 620 94 618
3 613 490 619
3 619 156 613
3 490 135 619
3 613 41 490
3 342 612 618
3 618 94 342
3 612 156 618
3 342 28 612
3 491 345 620
3 620 135 491
3 345 94 620
3 491 2 345
3 623 621 622
3 622 56 623
3 621 158 622
3 623 134 621
3 609 215 622
3 622 158 609
3 215 56 622
3 609 15 215
3 484 614 621
3 621 134 484
3 614 158 621
3 484 41 614
3 216 485 623
3 623 56 216
3 485 134 623
3 216 9 485
3 626 624 625
3 625 161 626
3 624 160 625
3 626 159 624
3 628 627 625
3 625 160 628
3 627 161 625
3 628 31 627
3 630 629 624
3 624 159 630
3 629 160 624
3 630 20 629
3 632 631 626
3 626 161 632
3 631 159 626
3 632 40 631
3 635 633 634
3 634 73 635
3 633 160 634
3 635 105 633
3 629 272 634
3 634 160 629
3 272 73 634
3 629 20 272
3 382 628 633
3 633 105 382
3 628 160 633
3 382 31 628
3 273 385 635
3 635 73 273
3 385 105 635
3 273 6 385
3 638 636 637
3 637 137 638
3 636 159 637
3 638 72 636
3 631 496 637
3 637 159 631
3 496 137 637
3 631 40 496
3 265 630 636
3 636 72 265
3 630 159 636
3 265 20 630
3 497 268 638
3 638 137 497
3 268 72 638
3 497 10 268
3 641 639 640
3 640 102 641
3 639 161 640
3 641 136 639
3 627 372 640
3 640 161 627
3 372 102 640
3 627 31 372
3 489 632 639
3 639 136 489
3 632 161 639
3 489 40 632
3 373 492 641
3 641 102 373
3 492 136 641
3 373 2 492
