# vtk DataFile Version 1.0

ASCII
DATASET POLYDATA
POINTS 306 float
36.8030968 49.6688766 25.8302212
36.8030968 52.1644859 25.9782963
39.2998543 52.1720238 25.8512421
39.2998543 49.6764145 25.7031651
39.4271317 49.5285301 28.1955414
36.9303741 49.5209923 28.3225956
36.9303741 52.0166016 28.4706707
39.4271317 52.0241394 28.3436165
36.8030968 54.6600952 26.1263733
39.2998543 54.6676331 25.9993172
36.9303741 54.5122108 28.6187477
39.4271317 54.5197487 28.4916935
44.2933693 52.1870995 25.5971317
44.2933693 54.6827126 25.7452087
46.7901268 54.6902504 25.6181526
46.7901268 52.1946411 25.4700775
46.9174042 52.0467567 27.9624519
44.4206467 52.0392151 28.0895081
44.4206467 54.5348282 28.2375832
46.9174042 54.542366 28.1105289
44.2933693 57.1783218 25.8932838
46.7901268 57.1858597 25.7662296
44.4206467 57.0304375 28.3856583
46.9174042 57.0379753 28.258604
44.4206467 42.056778 27.4972038
44.4206467 44.5523872 27.6452789
46.9174042 44.5599251 27.5182247
46.9174042 42.0643158 27.3701477
47.0446815 41.9164314 29.862524
44.547924 41.9088936 29.9895782
44.547924 44.4045029 30.1376534
47.0446815 44.4120407 30.0105991
36.9303741 47.0253792 28.1745186
39.4271317 47.0329208 28.0474644
39.554409 46.8850365 30.5398388
37.0576515 46.8774986 30.6668949
37.0576553 49.3731079 30.81497
39.5544128 49.3806458 30.6879158
31.936861 49.5059128 28.576704
31.936861 52.0015221 28.724781
34.4336166 52.0090637 28.5977268
34.4336166 49.5134506 28.4496498
34.5608978 49.3655701 30.9420242
32.0641403 49.3580284 31.0690804
32.0641403 51.8536415 31.2171555
34.5608978 51.8611794 31.0901012
37.0576553 51.8687172 30.963047
39.5544128 51.876255 30.8359909
34.4336166 54.504673 28.7458019
34.5608978 54.3567886 31.2381763
37.0576553 54.3643265 31.1111221
41.9238892 54.5272865 28.3646374
41.9238892 52.0316772 28.2165623
42.0511703 51.8837929 30.7089367
39.5544128 54.3718643 30.9840679
42.0511703 54.379406 30.8570137
44.5479279 51.8913345 30.5818825
47.0446854 51.8988724 30.4548283
47.0446854 54.3944817 30.6029034
36.9303741 57.0078201 28.7668228
39.4271317 57.015358 28.6397686
37.0576553 56.8599358 31.2591991
39.5544128 56.8674774 31.132143
41.9238892 57.0228996 28.5127144
42.0511703 56.8750153 31.0050888
44.5479279 54.3869438 30.7299576
47.0446854 56.8900909 30.7509785
44.5479279 56.8825531 30.8780346
41.9238892 59.5185089 28.6607895
44.4206467 59.5260468 28.5337353
42.0511703 59.3706245 31.1531658
44.5479279 59.3781624 31.0261097
41.9238892 62.0141182 28.8088665
44.4206467 62.021656 28.6818104
42.0511703 61.8662338 31.3012409
44.5479279 61.8737717 31.1741867
47.1719627 41.7685471 32.3548965
44.6752052 41.7610092 32.4819527
44.6752052 44.2566185 32.6300278
47.1719627 44.2641563 32.5029755
32.0641365 46.8624191 30.9210033
34.560894 46.869957 30.7939491
34.6881752 46.7220726 33.2863235
32.1914177 46.7145348 33.4133797
32.1914177 49.210144 33.5614548
34.6881752 49.2176857 33.4343987
39.6816902 46.7371521 33.0322151
37.1849327 46.7296143 33.1592712
37.1849327 49.2252235 33.3073463
39.6816902 49.2327614 33.1802902
42.0511665 46.8925743 30.4127846
42.0511703 49.3881836 30.5608616
44.5479279 49.3957214 30.4338055
44.547924 46.9001122 30.2857304
44.6752052 46.7522278 32.7781067
42.1784477 46.7446899 32.905159
42.1784477 49.2402992 33.0532341
44.6752052 49.2478371 32.9261818
32.1914177 51.7057571 33.7095299
34.6881752 51.713295 33.5824776
37.1849327 51.7208328 33.4554214
47.0446854 49.4032631 30.3067513
47.1719627 49.2553787 32.7991257
47.1719627 51.750988 32.9472008
32.0641403 54.3492508 31.3652325
32.1914177 54.2013664 33.857605
44.6752052 51.7434502 33.0742569
47.1719627 54.2465973 33.0952797
44.6752052 54.2390594 33.222332
32.0641403 56.8448601 31.5133076
34.5608978 56.8523979 31.3862534
32.1914177 56.6969757 34.0056839
44.6752052 56.7346687 33.3704109
32.0641403 59.3404694 31.6613846
34.5608978 59.3480072 31.5343285
32.1914177 59.192585 34.153759
34.6881752 56.7045135 33.8786278
34.6881752 59.2001228 34.0267029
37.0576553 59.355545 31.4072742
39.5544128 59.3630867 31.28022
37.1849327 59.2076645 33.8996506
39.6816902 59.2152023 33.7725945
42.1784477 56.7271309 33.4974632
44.6752052 59.230278 33.518486
42.1784477 59.2227402 33.6455383
34.5608978 61.8436165 31.6824055
37.0576553 61.8511581 31.5553513
34.6881752 61.6957359 34.1747818
37.1849327 61.7032738 34.0477257
39.5544128 61.858696 31.4282951
39.6816902 61.7108116 33.9206696
42.1784477 61.7183495 33.7936172
47.2992401 41.6206627 34.8472748
44.8024826 41.6131248 34.9743271
44.8024826 44.1087341 35.122406
47.2992401 44.116272 34.9953499
37.1849327 44.2340012 33.0111923
39.6816902 44.2415428 32.88414
39.8089676 44.0936584 35.3765144
37.3122101 44.0861206 35.5035667
37.3122101 46.5817299 35.6516457
39.8089676 46.5892677 35.5245895
34.8154526 46.574192 35.778698
32.3186951 46.5666504 35.9057541
32.3186951 49.0622635 36.0538292
34.8154526 49.0698013 35.9267769
37.3122101 49.0773392 35.7997208
42.3057251 46.5968056 35.3975334
44.8024826 46.6043434 35.2704811
47.1719627 46.7597656 32.6510506
47.2992401 46.6118851 35.143425
47.2992401 49.1074944 35.2915001
34.8154526 51.5654106 36.074852
44.8024826 49.0999565 35.4185562
47.2992401 51.6031036 35.439579
44.8024826 51.5955658 35.5666313
32.3186951 51.5578728 36.2019043
32.3186951 54.0534821 36.3499832
44.8024826 54.0911751 35.7147064
32.3186951 56.5490913 36.4980583
34.8154526 56.5566292 36.3710022
42.3057251 54.0836372 35.8417625
44.8024826 56.5867844 35.8627853
42.3057251 56.5792465 35.9898376
34.8154526 59.0522385 36.5190773
37.3122101 59.0597801 36.392025
39.8089676 59.067318 36.2649689
42.3057251 59.0748558 36.1379166
34.8154526 61.5478516 36.6671562
37.3122101 61.5553894 36.5401001
39.8089676 61.5629272 36.413044
42.3057251 61.5704651 36.2859917
47.4265175 41.4727783 37.3396492
44.92976 41.4652405 37.4667015
44.92976 43.9608498 37.6147804
47.4265175 43.9683876 37.4877243
32.3186951 44.0710411 35.757679
34.8154526 44.0785789 35.6306229
34.9427299 43.9306946 38.1229973
32.4459724 43.9231567 38.2500534
32.4459724 46.418766 38.3981285
34.9427299 46.4263077 38.2710724
39.936245 43.9457741 37.8688889
37.4394875 43.9382362 37.995945
37.4394875 46.4338455 38.1440201
42.3057251 44.1011963 35.2494583
42.4330025 43.9533119 37.7418327
42.4330025 46.4489212 37.8899117
44.92976 46.456459 37.7628555
47.4265175 46.4640007 37.6357994
32.4459724 48.9143791 38.5462036
34.9427299 48.921917 38.4191513
37.4394875 48.9294548 38.2920952
47.4265175 48.95961 37.7838745
44.92976 48.9520721 37.9109306
34.9427299 51.4175262 38.5672264
44.92976 51.4476814 38.0590057
32.4459724 51.4099884 38.6942825
32.4459724 53.9055977 38.8423576
42.4330025 51.4401436 38.1860619
44.92976 53.9432907 38.2070847
42.4330025 53.9357529 38.334137
32.4459724 56.401207 38.9904327
34.9427299 56.4087448 38.8633766
39.936245 53.928215 38.4611931
42.4330025 56.4313622 38.4822121
39.936245 56.4238243 38.6092682
34.9427299 58.9043579 39.0114555
37.4394875 56.4162865 38.7363243
37.4394875 58.9118958 38.8843994
39.936245 58.9194336 38.7573433
42.4330025 58.9269714 38.630291
37.4394875 41.4426231 37.8478661
39.936245 41.4501648 37.7208138
40.0635223 41.3022804 40.2131882
37.5667648 41.2947426 40.3402405
37.5667648 43.7903519 40.4883194
40.0635223 43.7978897 40.3612633
47.5537949 41.324894 39.8320236
45.0570374 41.3173561 39.9590797
45.0570374 43.8129654 40.1071548
47.5537949 43.820507 39.9800987
35.0700073 43.782814 40.6153717
32.5732498 43.7752724 40.7424278
32.5732498 46.2708855 40.8905029
35.0700073 46.2784233 40.7634506
37.5667648 46.2859612 40.6363945
42.5602798 43.8054276 40.2342072
47.5537949 46.3161163 40.1281738
45.0570374 46.3085785 40.2552299
35.0700073 48.7740326 40.9115257
45.0570374 48.8041878 40.4033051
32.5732498 48.7664948 41.038578
32.5732498 51.262104 41.186657
40.0635223 48.7891083 40.6574173
42.5602798 48.7966499 40.5303612
42.5602798 51.2922592 40.6784363
40.0635223 51.2847214 40.8054924
45.0570374 51.2997971 40.551384
32.5732498 53.7577133 41.3347321
42.5602798 53.7878685 40.8265114
40.0635223 53.7803307 40.9535675
32.5732498 56.2533226 41.4828072
35.0700073 56.2608604 41.3557549
35.0700073 53.7652512 41.2076759
37.5667648 53.7727928 41.0806236
37.5667648 56.2684021 41.2286987
40.0635223 56.2759399 41.1016426
42.5602798 41.3098183 40.086132
45.1843147 41.1694717 42.4514542
42.6875572 41.1619339 42.5785065
42.6875572 43.6575432 42.7265854
45.1843147 43.665081 42.5995293
35.1972847 43.6349297 43.1077499
32.7005272 43.627388 43.2348022
32.7005272 46.1230011 43.3828773
35.1972847 46.1305389 43.255825
37.6940422 43.6424675 42.9806938
40.1907997 43.6500053 42.8536377
45.1843147 46.1606941 42.7476044
42.6875572 46.1531525 42.8746605
35.1972847 48.6261482 43.4039001
40.1907997 46.1456146 43.0017128
42.6875572 48.6487656 43.0227356
40.1907997 48.6412239 43.1497917
45.1843147 48.6563034 42.8956795
32.7005272 48.6186104 43.5309563
32.7005272 51.1142197 43.6790314
40.1907997 51.136837 43.2978668
32.7005272 53.6098289 43.8271065
35.1972847 51.1217575 43.5519753
37.6940422 51.1292953 43.4249229
37.6940422 53.6249084 43.572998
35.1972847 53.6173668 43.7000504
40.1907997 53.6324463 43.4459419
32.7005272 56.1054382 43.9751816
35.1972847 56.1129799 43.8481293
40.1907997 41.1543961 42.7055626
42.8148346 41.0140495 45.0708847
40.3180771 41.0065117 45.197937
40.3180771 43.502121 45.3460121
42.8148346 43.5096588 45.2189598
45.3115921 41.0215874 44.9438286
45.3115921 43.5172005 45.0919037
35.3245621 43.4870453 45.6001244
32.8278046 43.4795074 45.7271767
32.8278046 45.9751167 45.8752556
35.3245621 45.9826546 45.7481995
37.8213196 43.4945831 45.4730682
37.8213196 45.9901924 45.6211433
40.3180771 45.9977303 45.494091
42.8148346 46.0052719 45.3670349
35.3245659 48.4782639 45.8962746
40.3180809 48.4933434 45.6421661
37.8213234 48.4858017 45.7692223
32.8278084 48.470726 46.0233307
32.8278084 50.9663353 46.1714058
35.3245659 50.9738731 46.0443497
37.8213234 50.9814148 45.9172974
40.3180809 50.9889526 45.7902412
32.8278084 53.4619446 46.3194809
35.3245659 53.4694824 46.1924286
37.9486008 45.842308 48.1135178
35.4518433 45.8347702 48.2405739
35.4518433 48.3303795 48.388649
37.9486008 48.3379173 48.2615967
POLYGONS 632 2528
3 0 1 2
3 0 2 3
3 0 3 4
3 0 4 5
3 0 5 6
3 0 6 1
3 3 2 7
3 3 7 4
3 1 8 9
3 1 9 2
3 1 6 10
3 1 10 8
3 8 10 11
3 8 11 9
3 2 9 11
3 2 11 7
3 12 13 14
3 12 14 15
3 12 15 16
3 12 16 17
3 12 17 18
3 12 18 13
3 15 14 19
3 15 19 16
3 13 20 21
3 13 21 14
3 13 18 22
3 13 22 20
3 20 22 23
3 20 23 21
3 14 21 23
3 14 23 19
3 24 25 26
3 24 26 27
3 24 27 28
3 24 28 29
3 24 29 30
3 24 30 25
3 25 30 31
3 25 31 26
3 27 26 31
3 27 31 28
3 32 5 4
3 32 4 33
3 32 33 34
3 32 34 35
3 32 35 36
3 32 36 5
3 33 4 37
3 33 37 34
3 38 39 40
3 38 40 41
3 38 41 42
3 38 42 43
3 38 43 44
3 38 44 39
3 39 44 45
3 39 45 40
3 41 40 45
3 41 45 42
3 5 36 46
3 5 46 6
3 4 7 47
3 4 47 37
3 40 48 10
3 40 10 6
3 40 6 46
3 40 46 45
3 40 45 49
3 40 49 48
3 48 49 50
3 48 50 10
3 7 11 51
3 7 51 52
3 7 52 53
3 7 53 47
3 11 54 55
3 11 55 51
3 52 51 18
3 52 18 17
3 52 17 56
3 52 56 53
3 17 16 57
3 17 57 56
3 16 19 58
3 16 58 57
3 10 59 60
3 10 60 11
3 10 50 61
3 10 61 59
3 59 61 62
3 59 62 60
3 11 60 62
3 11 62 54
3 51 63 22
3 51 22 18
3 51 55 64
3 51 64 63
3 65 58 66
3 65 66 67
3 22 67 66
3 22 66 23
3 19 23 66
3 19 66 58
3 63 68 69
3 63 69 22
3 63 64 70
3 63 70 68
3 22 69 71
3 22 71 67
3 68 72 73
3 68 73 69
3 68 70 74
3 68 74 72
3 70 71 75
3 70 75 74
3 72 74 75
3 72 75 73
3 69 73 75
3 69 75 71
3 29 28 76
3 29 76 77
3 29 77 78
3 29 78 30
3 30 78 79
3 30 79 31
3 28 31 79
3 28 79 76
3 80 43 42
3 80 42 81
3 80 81 82
3 80 82 83
3 80 83 84
3 80 84 43
3 81 42 85
3 81 85 82
3 35 34 86
3 35 86 87
3 35 87 88
3 35 88 36
3 34 37 89
3 34 89 86
3 90 91 92
3 90 92 93
3 90 93 94
3 90 94 95
3 90 95 96
3 90 96 91
3 93 92 97
3 93 97 94
3 43 84 98
3 43 98 44
3 84 85 99
3 84 99 98
3 42 45 99
3 42 99 85
3 36 88 100
3 36 100 46
3 37 47 53
3 37 53 91
3 37 91 96
3 37 96 89
3 91 53 56
3 91 56 92
3 92 56 57
3 92 57 101
3 92 101 102
3 92 102 97
3 101 57 103
3 101 103 102
3 44 104 49
3 44 49 45
3 44 98 105
3 44 105 104
3 45 46 100
3 45 100 99
3 106 103 107
3 106 107 108
3 65 108 107
3 65 107 58
3 57 58 107
3 57 107 103
3 104 109 110
3 104 110 49
3 104 105 111
3 104 111 109
3 49 110 61
3 49 61 50
3 54 62 64
3 54 64 55
3 65 67 112
3 65 112 108
3 109 113 114
3 109 114 110
3 109 111 115
3 109 115 113
3 111 116 117
3 111 117 115
3 113 115 117
3 113 117 114
3 110 114 118
3 110 118 61
3 61 118 119
3 61 119 62
3 118 120 121
3 118 121 119
3 62 119 70
3 62 70 64
3 122 112 123
3 122 123 124
3 70 124 123
3 70 123 71
3 67 71 123
3 67 123 112
3 114 125 126
3 114 126 118
3 114 117 127
3 114 127 125
3 125 127 128
3 125 128 126
3 118 126 128
3 118 128 120
3 119 129 74
3 119 74 70
3 119 121 130
3 119 130 129
3 129 130 131
3 129 131 74
3 70 74 131
3 70 131 124
3 77 76 132
3 77 132 133
3 77 133 134
3 77 134 78
3 78 134 135
3 78 135 79
3 76 79 135
3 76 135 132
3 136 87 86
3 136 86 137
3 136 137 138
3 136 138 139
3 136 139 140
3 136 140 87
3 137 86 141
3 137 141 138
3 83 82 142
3 83 142 143
3 83 143 144
3 83 144 84
3 84 144 145
3 84 145 85
3 82 85 145
3 82 145 142
3 87 140 146
3 87 146 88
3 86 89 96
3 86 96 95
3 86 95 147
3 86 147 141
3 95 94 148
3 95 148 147
3 94 97 102
3 94 102 149
3 94 149 150
3 94 150 148
3 149 102 151
3 149 151 150
3 85 99 100
3 85 100 88
3 85 88 146
3 85 146 145
3 85 145 152
3 85 152 99
3 153 151 154
3 153 154 155
3 106 155 154
3 106 154 103
3 102 103 154
3 102 154 151
3 98 99 152
3 98 152 156
3 98 156 157
3 98 157 105
3 106 108 158
3 106 158 155
3 105 157 159
3 105 159 111
3 111 159 160
3 111 160 116
3 161 158 162
3 161 162 163
3 122 163 162
3 122 162 112
3 108 112 162
3 108 162 158
3 116 160 164
3 116 164 117
3 120 165 166
3 120 166 121
3 122 124 167
3 122 167 163
3 117 164 168
3 117 168 127
3 164 165 169
3 164 169 168
3 127 168 169
3 127 169 128
3 120 128 169
3 120 169 165
3 121 166 170
3 121 170 130
3 166 167 171
3 166 171 170
3 130 170 171
3 130 171 131
3 124 131 171
3 124 171 167
3 133 132 172
3 133 172 173
3 133 173 174
3 133 174 134
3 132 135 175
3 132 175 172
3 176 143 142
3 176 142 177
3 176 177 178
3 176 178 179
3 176 179 180
3 176 180 143
3 177 142 181
3 177 181 178
3 139 138 182
3 139 182 183
3 139 183 184
3 139 184 140
3 138 141 147
3 138 147 185
3 138 185 186
3 138 186 182
3 185 147 187
3 185 187 186
3 134 148 150
3 134 150 135
3 134 174 188
3 134 188 148
3 135 150 189
3 135 189 175
3 143 180 190
3 143 190 144
3 180 181 191
3 180 191 190
3 144 190 191
3 144 191 145
3 142 145 191
3 142 191 181
3 140 184 192
3 140 192 146
3 147 148 188
3 147 188 187
3 188 189 193
3 188 193 194
3 153 194 193
3 153 193 151
3 150 151 193
3 150 193 189
3 145 146 192
3 145 192 191
3 145 191 195
3 145 195 152
3 153 155 196
3 153 196 194
3 156 152 195
3 156 195 197
3 156 197 198
3 156 198 157
3 199 196 200
3 199 200 201
3 161 201 200
3 161 200 158
3 155 158 200
3 155 200 196
3 157 198 202
3 157 202 159
3 159 202 203
3 159 203 160
3 204 201 205
3 204 205 206
3 161 163 205
3 161 205 201
3 160 203 207
3 160 207 164
3 203 208 209
3 203 209 207
3 164 207 209
3 164 209 165
3 208 206 210
3 208 210 209
3 165 209 210
3 165 210 166
3 206 205 211
3 206 211 210
3 166 210 211
3 166 211 167
3 163 167 211
3 163 211 205
3 212 183 182
3 212 182 213
3 212 213 214
3 212 214 215
3 212 215 216
3 212 216 183
3 215 214 217
3 215 217 216
3 213 182 217
3 213 217 214
3 173 172 218
3 173 218 219
3 173 219 220
3 173 220 174
3 219 218 221
3 219 221 220
3 172 175 221
3 172 221 218
3 179 178 222
3 179 222 223
3 179 223 224
3 179 224 180
3 180 224 225
3 180 225 181
3 178 181 225
3 178 225 222
3 183 216 226
3 183 226 184
3 182 186 227
3 182 227 217
3 186 187 188
3 186 188 174
3 186 174 220
3 186 220 227
3 220 221 228
3 220 228 229
3 188 229 228
3 188 228 189
3 175 189 228
3 175 228 221
3 181 191 192
3 181 192 184
3 181 184 226
3 181 226 225
3 181 225 230
3 181 230 191
3 188 194 231
3 188 231 229
3 190 197 195
3 190 195 191
3 190 191 230
3 190 230 232
3 190 232 233
3 190 233 197
3 234 235 236
3 234 236 237
3 235 231 238
3 235 238 236
3 199 236 238
3 199 238 196
3 194 196 238
3 194 238 231
3 197 233 239
3 197 239 198
3 237 236 240
3 237 240 241
3 204 241 240
3 204 240 201
3 199 201 240
3 199 240 236
3 198 239 242
3 198 242 202
3 202 242 243
3 202 243 203
3 244 245 246
3 244 246 243
3 203 243 246
3 203 246 208
3 245 241 247
3 245 247 246
3 208 246 247
3 208 247 206
3 204 206 247
3 204 247 241
3 248 227 220
3 248 220 219
3 248 219 249
3 248 249 250
3 248 250 251
3 248 251 227
3 219 220 252
3 219 252 249
3 223 222 253
3 223 253 254
3 223 254 255
3 223 255 224
3 224 255 256
3 224 256 225
3 222 225 226
3 222 226 216
3 222 216 257
3 222 257 253
3 216 217 258
3 216 258 257
3 217 227 251
3 217 251 258
3 251 252 259
3 251 259 260
3 220 229 259
3 220 259 252
3 225 256 261
3 225 261 230
3 262 260 263
3 262 263 264
3 234 264 263
3 234 263 235
3 260 259 265
3 260 265 263
3 235 263 265
3 235 265 231
3 229 231 265
3 229 265 259
3 232 230 261
3 232 261 266
3 232 266 267
3 232 267 233
3 234 237 268
3 234 268 264
3 233 267 269
3 233 269 239
3 270 271 272
3 270 272 273
3 244 273 272
3 244 272 245
3 271 268 274
3 271 274 272
3 245 272 274
3 245 274 241
3 237 241 274
3 237 274 268
3 239 269 275
3 239 275 242
3 269 273 276
3 269 276 275
3 242 275 276
3 242 276 243
3 244 243 276
3 244 276 273
3 277 258 251
3 277 251 250
3 277 250 278
3 277 278 279
3 277 279 280
3 277 280 258
3 279 278 281
3 279 281 280
3 250 249 282
3 250 282 278
3 278 282 283
3 278 283 281
3 251 281 283
3 251 283 252
3 249 252 283
3 249 283 282
3 254 253 284
3 254 284 285
3 254 285 286
3 254 286 255
3 285 284 287
3 285 287 286
3 255 286 287
3 255 287 256
3 253 257 288
3 253 288 284
3 284 288 289
3 284 289 287
3 257 258 280
3 257 280 288
3 288 280 290
3 288 290 289
3 280 281 291
3 280 291 290
3 262 290 291
3 262 291 260
3 251 260 291
3 251 291 281
3 256 287 292
3 256 292 261
3 289 290 293
3 289 293 294
3 262 264 293
3 262 293 290
3 266 261 292
3 266 292 295
3 266 295 296
3 266 296 267
3 295 292 297
3 295 297 296
3 292 294 298
3 292 298 297
3 270 297 298
3 270 298 271
3 294 293 299
3 294 299 298
3 271 298 299
3 271 299 268
3 264 268 299
3 264 299 293
3 267 296 300
3 267 300 269
3 296 297 301
3 296 301 300
3 269 300 301
3 269 301 273
3 270 273 301
3 270 301 297
3 287 289 302
3 287 302 303
3 287 303 304
3 287 304 292
3 303 302 305
3 303 305 304
3 292 304 305
3 292 305 294
3 289 294 305
3 289 305 302
