# vtk DataFile Version 1.0

ASCII
DATASET POLYDATA
POINTS 316 float
38.1151161 49.5987015 27.0128803
36.8667374 50.8427391 27.1504459
38.0514755 50.9204483 25.8407307
39.3634949 50.8502769 27.0233917
36.8667374 53.3383484 27.298521
38.0514755 53.4160576 25.9888077
39.3634949 53.3458862 27.1714668
45.6053886 52.1169281 26.7797928
44.3570099 53.3609619 26.9173584
45.541748 53.4386749 25.6076431
46.8537674 53.3685036 26.7903023
38.1151161 54.5899239 27.3090324
44.3570099 55.856575 27.0654335
45.541748 55.9342842 25.7557182
46.8537674 55.8641129 26.9383793
45.6053886 57.1081467 27.0759449
45.732666 41.9866028 28.679863
44.4842873 43.2306404 28.8174286
45.6690254 43.3083496 27.5077133
46.9810448 43.2381783 28.6903744
45.732666 44.4822159 28.82794
38.2423935 46.9552078 29.3571796
36.9940147 48.1992455 29.4947453
38.1787529 48.2769547 28.18503
39.4907722 48.2067833 29.367691
33.2488785 49.4357414 29.7593651
32.0004997 50.6797752 29.8969307
33.1852379 50.7574883 28.5872154
34.4972572 50.6873169 29.7698765
36.9940147 50.6948547 29.6428204
39.4907722 50.7023926 29.5157661
33.2488785 51.9313507 29.9074402
35.745636 51.9388885 29.780386
34.4972572 53.1829262 29.9179516
35.6819954 53.2606354 28.6082363
40.739151 51.953968 29.5262775
40.6755104 53.2757149 28.3541279
43.2359085 51.9615059 29.3992214
43.1722679 53.2832527 28.2270718
45.732666 51.9690437 29.2721672
46.9810448 53.2206192 29.2826786
35.745636 54.4344978 29.928463
36.9940147 55.6860733 29.9389725
38.1787529 55.7637863 28.6292572
40.739151 54.4495773 29.6743526
39.4907722 55.6936111 29.8119183
41.9875298 55.7011528 29.684864
43.1722679 55.778862 28.3751488
46.9810448 55.7162285 29.4307537
38.2423935 56.9376488 29.9494839
41.9875298 58.1967621 29.8329391
43.1722679 58.2744713 28.5232239
45.732666 56.9602623 29.5683193
44.4842873 58.2042999 29.7058849
41.9875298 60.6923714 29.9810162
43.1722679 60.7700844 28.6713009
44.4842873 60.6999092 29.85396
43.2359085 61.9439468 29.9915257
45.8599434 41.8387184 31.1722374
44.6115646 43.082756 31.309803
47.1083221 43.0902939 31.1827488
45.8599434 44.3343315 31.3203144
33.3761559 46.7922478 32.1036644
32.1277771 48.0362816 32.24123
33.3125191 48.1139946 30.9315147
34.6245346 48.0438194 32.1141739
38.3696709 46.8073235 31.8495541
37.1212921 48.0513611 31.9871197
39.6180496 48.0588989 31.8600655
43.3631859 46.822403 31.5954456
42.1148071 48.0664368 31.7330112
43.2995491 48.1441498 30.423296
44.6115646 48.0739746 31.6059551
32.1277771 50.5318909 32.3893051
34.6245346 50.5394325 32.262249
37.1212921 50.5469704 32.1351967
40.8664284 49.3104744 31.870575
40.8027916 50.6322212 30.6984272
43.2995491 50.6397591 30.5713711
45.8599434 49.3255501 31.6164665
45.7963066 50.6472969 30.4443169
47.1083221 50.5771255 31.626976
32.1277771 53.027504 32.5373802
33.3125191 53.1052132 31.2276669
35.8729134 51.7910042 32.2727623
47.1083221 53.0727348 31.775053
32.1277771 55.5231133 32.6854591
33.3125191 55.6008224 31.375742
35.8092766 55.6083641 31.2486877
40.8027916 55.6234398 30.9945774
45.8599434 54.3167686 31.9126186
44.6115646 55.5608063 32.0501823
45.7963066 55.6385155 30.740469
32.1277771 58.0187225 32.8335342
33.3125191 58.0964355 31.523819
35.8092766 58.1039734 31.3967628
38.3060341 58.1115112 31.2697086
40.8027916 58.1190491 31.1426544
44.6115646 58.0564156 32.1982613
33.3761559 59.270298 32.8440437
34.6245346 60.5218697 32.8545532
35.8092766 60.5995827 31.5448399
38.3696709 59.2853737 32.5899353
37.1212921 60.5294113 32.7275009
39.6180496 60.5369492 32.6004448
40.8027916 60.6146584 31.2907295
43.3631859 59.3004532 32.3358269
42.1148071 60.544487 32.4733887
43.2995491 60.6222 31.1636753
35.8729134 61.7734451 32.8650665
40.8664284 61.7885246 32.6109543
45.9872208 41.6908379 33.6646118
44.738842 42.9348717 33.8021774
47.2355995 42.9424095 33.6751251
38.4969482 44.1638298 34.1938553
37.2485695 45.4078674 34.3314171
38.4333115 45.4855766 33.0217056
39.745327 45.4154053 34.2043648
45.9872208 44.1864471 33.8126907
33.5034332 46.6443634 34.5960388
32.2550545 47.8883972 34.7336044
34.751812 47.8959389 34.6065483
37.2485695 47.9034767 34.479496
40.9937057 46.6669807 34.2148743
40.930069 47.9887276 33.0427246
43.4904633 46.6745186 34.0878181
45.9872208 46.6820564 33.9607658
45.923584 48.0038033 32.7886162
47.2355995 47.9336319 33.9712753
33.5034332 49.1399727 34.7441139
33.4397964 50.4617195 33.5719643
36.0001907 49.1475105 34.6170616
34.751812 50.3915482 34.7546272
35.936554 50.4692574 33.444912
47.2355995 50.4292412 34.1193504
33.5034332 51.635582 34.8921928
32.2550545 52.8796196 35.0297546
45.9872208 51.673275 34.256916
44.738842 52.9173126 34.3944817
45.923584 52.9950218 33.0847664
32.2550545 55.3752289 35.1778336
44.738842 55.4129219 34.5425568
33.5034332 56.6268044 35.188343
33.4397964 57.9485512 34.0161934
34.751812 57.878376 35.1988525
43.4904633 56.6569557 34.6801224
42.2420845 57.9009933 34.817688
43.4268265 57.9787064 33.5079727
34.751812 60.3739891 35.3469315
38.4969482 59.1374893 35.0823097
37.2485695 60.3815269 35.2198753
39.745327 60.3890648 35.0928192
42.2420845 60.3966026 34.9657669
36.0001907 61.6255608 35.3574409
40.9937057 61.6406403 35.1033325
46.1144981 41.5429535 36.1569901
44.8661194 42.7869873 36.2945518
47.3628769 42.7945251 36.1674995
33.6307106 44.0008698 36.9403381
32.3823318 45.2449036 37.0779037
33.5670738 45.3226166 35.7681885
34.8790894 45.2524414 36.9508476
38.6242256 44.0159454 36.6862297
37.3758469 45.2599831 36.8237953
41.1209831 44.0234833 36.5591736
41.0573463 45.3452301 35.3870239
42.3693619 45.2750587 36.5696831
44.8661194 45.2825966 36.4426308
46.0508614 45.3603096 35.1329155
47.3628769 45.2901382 36.3155746
32.3823318 47.7405128 37.2259789
34.8790894 47.7480545 37.0989227
37.3758469 47.7555923 36.9718704
43.6177406 46.5266342 36.5801964
47.3628769 47.7857475 36.4636497
33.6307106 48.9920883 37.2364883
36.1274681 48.9996262 37.109436
34.8790894 50.2436638 37.2470016
46.1144981 49.0297813 36.6012154
44.8661194 50.273819 36.738781
46.0508614 50.3515282 35.4290657
33.6307106 51.4876976 37.3845673
32.3823318 52.7317352 37.5221329
44.8661194 52.7694283 36.8868561
32.3823357 55.2273445 37.670208
43.6177406 54.0134621 37.0244217
42.3693619 55.2574997 37.1619873
43.5541039 55.3352089 35.852272
33.6307144 56.47892 37.6807175
34.8790932 57.7304916 37.691227
42.3693657 57.753109 37.3100662
36.1274719 58.9820671 37.7017403
36.0638313 60.3038139 36.5295906
38.6242294 58.9896049 37.5746841
41.1209869 58.9971466 37.447628
41.0573463 60.3188934 36.2754784
38.7515068 41.3724518 39.030529
37.5031281 42.6164894 39.1680946
38.6878662 42.6941986 37.8583794
39.9998856 42.6240273 39.0410385
46.2417793 41.3950691 38.6493645
44.9934006 42.6391029 38.7869301
47.4901581 42.6466408 38.659874
33.7579918 43.8529854 39.4327126
32.509613 45.0970192 39.5702782
35.0063705 45.1045609 39.443222
37.5031281 45.1120987 39.3161697
41.2482643 43.8756027 39.051548
43.7450218 43.8831406 38.9244957
43.6813812 45.2048874 37.752346
47.4901581 45.1422539 38.8079491
33.7579918 46.3485947 39.5807877
33.6943512 47.6703415 38.408638
36.2547493 46.3561325 39.4537354
35.0063705 47.6001701 39.591301
36.1911087 47.6778793 38.2815857
46.2417793 46.3862877 38.9455147
44.9934006 47.6303253 39.0830803
46.1781387 47.7080345 37.773365
33.7579918 48.8442039 39.7288666
32.509613 50.0882416 39.8664322
33.6943512 50.1659508 38.5567169
44.9934006 50.1259346 39.2311554
32.509613 52.5838509 40.0145073
43.7450218 51.3699684 39.368721
42.4966431 52.614006 39.5062866
43.6813812 52.6917152 38.1965714
32.509613 55.0794601 40.1625824
41.2482643 53.8580399 39.6438522
39.9998856 55.1020775 39.7814178
41.1846237 55.1797867 38.4717026
33.7579918 56.3310356 40.1730919
36.2547493 56.3385735 40.0460396
36.1911087 57.6603203 38.8738899
38.7515068 56.3461113 39.9189835
38.6878662 57.6678581 38.7468338
41.1846237 57.6753998 38.6197777
38.8151436 42.5463142 40.3507538
43.8722992 41.2396469 41.2687912
42.6239204 42.4836807 41.4063568
43.8086586 42.5613937 40.0966454
45.1206779 42.4912186 41.2793045
46.3054161 42.5689316 39.9695892
33.8852692 43.705101 41.925087
32.6368904 44.9491348 42.0626526
36.3820267 43.7126389 41.7980347
36.3183861 45.0343857 40.625885
38.8787842 43.7201767 41.6709785
41.3755417 43.7277184 41.5439224
45.1206779 44.9868317 41.4273796
46.3054161 45.0645409 40.1176643
33.8852692 46.2007103 42.0731659
35.1336479 47.4522858 42.0836754
45.1206779 47.4824409 41.5754547
33.8852692 48.6963196 42.221241
32.6368904 49.9403572 42.3588066
41.3755417 48.7189369 41.8400764
40.1271629 49.9629707 41.9776421
41.3119011 50.0406837 40.6679268
43.8722992 48.7264748 41.7130203
43.8086586 50.0482216 40.5408707
32.6368904 52.4359665 42.5068817
40.1271629 52.4585838 42.1257172
41.3119011 52.536293 40.8160019
32.6368904 54.9315758 42.6549568
36.3820267 53.6950798 42.3903389
35.1336479 54.9391136 42.5279045
36.3183861 55.0168266 41.2181892
38.8787842 53.7026176 42.2632828
38.8151436 55.0243645 41.0911331
33.8852692 56.1831512 42.6654663
41.5028191 41.0842247 43.8882217
40.2544403 42.3282585 44.0257874
41.4391785 42.4059715 42.7160721
43.9995766 41.0917625 43.7611694
45.2479553 42.3433342 43.7716789
34.0125465 43.5572166 44.4174614
32.7641678 44.8012543 44.555027
36.509304 43.5647545 44.2904091
39.0060616 43.5722961 44.163353
43.9995766 43.5873718 43.9092445
42.7511978 44.8314056 44.0468102
43.935936 44.9091187 42.7370949
34.0125465 46.0528259 44.5655403
35.2609253 47.3044014 44.5760498
41.5028191 46.0754433 44.1843758
40.2544403 47.3194771 44.3219414
41.4391785 47.3971901 43.0122261
43.935936 47.4047279 42.88517
34.0125465 48.5484352 44.7136154
32.7641678 49.7924728 44.851181
40.2544403 49.8150902 44.4700165
32.7641678 52.2880821 44.9992561
36.509304 51.0515862 44.7346344
35.2609253 52.29562 44.8722
36.4456635 52.373333 43.5624886
39.0060616 51.059124 44.6075821
38.942421 52.3808708 43.4354324
34.0125465 53.5396576 45.0097656
33.9489059 54.8614044 43.837616
41.5664558 42.2580872 45.2084465
44.0632133 42.265625 45.0813942
34.0761833 44.7310791 45.73769
36.5729408 44.7386169 45.6106339
39.0696983 44.7461586 45.4835777
41.5664558 44.7536964 45.3565254
36.6365814 45.9124832 46.9308586
35.3882027 47.156517 47.0684242
37.8849602 47.1640549 46.9413681
39.0696983 47.2417679 45.6316566
34.0761871 49.7223015 46.0338402
36.6365814 48.4080925 47.0789337
36.5729446 49.7298393 45.9067841
39.0697021 49.7373772 45.7797318
34.0761871 52.2179108 46.1819153
36.700222 47.0863457 48.2510834
POLYGONS 632 2528
3 2 0 1
3 0 2 3
3 5 2 1
3 4 5 1
3 6 3 2
3 5 6 2
3 9 7 8
3 7 9 10
3 5 4 11
3 6 5 11
3 13 9 8
3 12 13 8
3 14 10 9
3 13 14 9
3 13 12 15
3 14 13 15
3 18 16 17
3 16 18 19
3 18 17 20
3 19 18 20
3 23 21 22
3 21 23 24
3 27 25 26
3 25 27 28
3 0 23 22
3 0 22 1
3 1 22 29
3 23 0 3
3 23 3 24
3 24 3 30
3 27 26 31
3 32 33 34
3 28 27 31
3 34 29 32
3 34 4 29
3 4 1 29
3 35 6 36
3 35 30 6
3 30 3 6
3 36 38 37
3 35 36 37
3 38 8 7
3 38 7 37
3 37 7 39
3 39 7 10
3 40 39 10
3 34 33 41
3 43 41 42
3 11 41 43
3 11 34 41
3 11 4 34
3 11 43 45
3 6 11 45
3 6 45 44
3 6 44 36
3 44 46 47
3 44 47 36
3 36 47 38
3 8 47 12
3 38 47 8
3 10 14 40
3 40 14 48
3 43 42 49
3 45 43 49
3 51 47 46
3 50 51 46
3 12 47 51
3 12 51 52
3 12 52 15
3 52 51 53
3 48 14 15
3 52 48 15
3 55 51 50
3 54 55 50
3 56 53 51
3 55 56 51
3 55 54 57
3 56 55 57
3 16 58 59
3 17 16 59
3 58 16 19
3 60 58 19
3 17 59 61
3 20 17 61
3 60 19 20
3 61 60 20
3 64 62 63
3 62 64 65
3 21 66 67
3 22 21 67
3 66 21 24
3 68 66 24
3 71 69 70
3 69 71 72
3 25 64 63
3 25 63 26
3 26 63 73
3 64 25 28
3 64 28 65
3 65 28 74
3 22 67 29
3 67 75 29
3 76 30 77
3 76 68 30
3 68 24 30
3 70 76 77
3 70 77 71
3 71 77 78
3 79 72 71
3 79 71 80
3 80 71 78
3 79 80 81
3 83 31 26
3 83 26 82
3 82 26 73
3 28 83 74
3 28 31 83
3 74 83 84
3 33 32 83
3 84 83 32
3 75 32 29
3 84 32 75
3 30 35 77
3 37 77 35
3 78 77 37
3 39 78 37
3 80 78 39
3 80 39 40
3 80 40 81
3 81 40 85
3 87 83 82
3 86 87 82
3 33 88 41
3 33 83 88
3 83 87 88
3 41 88 42
3 44 45 89
3 44 89 46
3 92 91 90
3 92 90 85
3 92 85 48
3 48 85 40
3 94 87 86
3 93 94 86
3 88 87 95
3 95 87 94
3 42 96 49
3 42 88 96
3 88 95 96
3 49 89 45
3 49 96 89
3 96 97 89
3 46 97 50
3 89 97 46
3 52 91 92
3 52 53 91
3 53 98 91
3 48 52 92
3 94 93 99
3 99 100 101
3 99 101 94
3 94 101 95
3 103 102 96
3 103 96 101
3 101 96 95
3 102 104 105
3 102 105 96
3 96 105 97
3 105 106 97
3 105 107 106
3 97 106 50
3 108 54 106
3 50 106 54
3 108 106 98
3 108 98 56
3 56 98 53
3 101 100 109
3 103 101 109
3 105 104 110
3 54 108 57
3 105 110 107
3 56 57 108
3 58 111 112
3 59 58 112
3 111 58 60
3 113 111 60
3 116 114 115
3 114 116 117
3 59 112 118
3 61 59 118
3 113 60 61
3 118 113 61
3 62 119 120
3 63 62 120
3 119 62 65
3 121 119 65
3 66 116 115
3 66 115 67
3 67 115 122
3 68 124 123
3 66 68 123
3 66 123 117
3 66 117 116
3 124 70 69
3 124 69 123
3 123 69 125
3 72 127 126
3 72 126 69
3 69 126 125
3 126 127 128
3 129 130 73
3 129 73 120
3 120 73 63
3 131 132 133
3 121 74 129
3 121 65 74
3 74 130 129
3 133 122 131
3 133 75 122
3 75 67 122
3 68 76 124
3 70 124 76
3 72 79 127
3 127 79 81
3 127 81 128
3 128 81 134
3 130 135 136
3 130 136 73
3 73 136 82
3 132 84 133
3 132 135 84
3 74 84 130
3 130 84 135
3 75 133 84
3 139 138 137
3 139 137 134
3 139 134 85
3 85 134 81
3 82 136 86
3 136 140 86
3 90 138 139
3 90 91 138
3 91 141 138
3 85 90 139
3 142 143 93
3 142 93 140
3 140 93 86
3 142 144 143
3 147 146 145
3 147 145 141
3 147 141 98
3 98 141 91
3 93 143 99
3 143 100 99
3 143 144 100
3 144 148 100
3 102 150 149
3 103 150 102
3 149 104 102
3 151 104 149
3 106 146 147
3 106 107 146
3 107 152 146
3 98 106 147
3 100 148 153
3 109 100 153
3 150 103 109
3 153 150 109
3 104 151 154
3 110 104 154
3 152 107 110
3 154 152 110
3 111 155 156
3 112 111 156
3 155 111 113
3 157 155 113
3 160 158 159
3 158 160 161
3 114 162 163
3 115 114 163
3 117 165 164
3 117 164 114
3 114 164 162
3 164 165 166
3 168 118 112
3 168 112 167
3 167 112 156
3 118 168 169
3 118 169 113
3 113 169 157
3 119 160 159
3 119 159 120
3 120 159 170
3 160 119 121
3 160 121 161
3 161 121 171
3 115 163 122
3 163 172 122
3 117 123 165
3 165 173 166
3 165 123 173
3 123 125 173
3 167 126 168
3 167 173 126
3 173 125 126
3 168 126 128
3 168 128 169
3 169 128 174
3 120 170 175
3 129 120 175
3 131 176 132
3 176 177 132
3 129 171 121
3 129 175 171
3 172 131 122
3 176 131 172
3 180 179 178
3 180 178 174
3 180 174 134
3 134 174 128
3 135 181 182
3 136 135 182
3 177 135 132
3 181 135 177
3 137 179 180
3 137 138 179
3 138 183 179
3 134 137 180
3 136 182 140
3 182 184 140
3 187 186 185
3 187 185 183
3 187 183 141
3 141 183 138
3 140 184 188
3 142 140 188
3 188 144 142
3 189 144 188
3 145 186 187
3 145 146 186
3 146 190 186
3 141 145 187
3 191 192 148
3 191 148 189
3 189 148 144
3 192 149 150
3 192 191 149
3 191 193 149
3 151 194 195
3 151 149 194
3 149 193 194
3 195 194 190
3 195 190 152
3 152 190 146
3 148 192 153
3 150 153 192
3 151 195 154
3 152 154 195
3 198 196 197
3 196 198 199
3 155 200 201
3 156 155 201
3 200 155 157
3 202 200 157
3 158 203 204
3 159 158 204
3 203 158 161
3 205 203 161
3 162 198 197
3 162 197 163
3 163 197 206
3 198 207 199
3 198 162 207
3 162 164 207
3 166 209 208
3 166 208 164
3 164 208 207
3 209 201 208
3 209 167 201
3 167 156 201
3 157 169 202
3 202 169 210
3 211 212 170
3 211 170 204
3 204 170 159
3 213 214 215
3 205 171 211
3 205 161 171
3 171 212 211
3 215 206 213
3 215 172 206
3 172 163 206
3 166 173 209
3 167 209 173
3 216 218 217
3 218 216 210
3 218 210 174
3 174 210 169
3 212 175 170
3 219 220 221
3 215 214 219
3 215 219 221
3 215 221 176
3 177 176 221
3 171 175 212
3 172 215 176
3 178 217 218
3 178 179 217
3 179 222 217
3 174 178 218
3 181 221 220
3 181 220 182
3 182 220 223
3 177 221 181
3 226 225 224
3 226 224 222
3 226 222 183
3 183 222 179
3 182 223 184
3 223 227 184
3 230 229 228
3 225 230 228
3 226 230 225
3 226 186 230
3 226 185 186
3 183 185 226
3 184 227 231
3 188 184 231
3 189 232 233
3 189 188 232
3 188 231 232
3 233 234 235
3 232 234 233
3 229 235 234
3 229 230 235
3 230 236 235
3 186 190 236
3 230 186 236
3 189 233 191
3 193 191 233
3 235 193 233
3 194 193 235
3 236 194 235
3 190 194 236
3 196 237 197
3 196 199 237
3 240 238 239
3 242 201 200
3 241 238 240
3 200 202 242
3 203 243 244
3 204 203 244
3 205 246 245
3 205 245 203
3 203 245 243
3 237 247 245
3 237 245 206
3 237 206 197
3 206 245 246
3 199 247 237
3 199 207 247
3 207 248 247
3 239 208 240
3 239 248 208
3 248 207 208
3 241 208 249
3 241 240 208
3 249 208 250
3 201 242 208
3 250 208 242
3 202 210 250
3 242 202 250
3 204 244 251
3 211 204 251
3 214 246 252
3 214 213 246
3 252 246 251
3 205 211 246
3 251 246 211
3 206 246 213
3 216 249 250
3 216 217 249
3 217 253 249
3 210 216 250
3 219 254 255
3 220 219 255
3 252 219 214
3 254 219 252
3 258 257 256
3 258 259 260
3 256 259 258
3 260 259 253
3 260 253 222
3 222 253 217
3 220 255 223
3 255 261 223
3 263 257 258
3 262 257 263
3 224 225 263
3 224 263 260
3 260 263 258
3 222 224 260
3 223 261 227
3 261 264 227
3 267 266 265
3 267 268 269
3 265 268 267
3 262 269 268
3 263 269 262
3 263 229 269
3 263 228 229
3 225 228 263
3 227 264 270
3 231 227 270
3 266 267 232
3 266 232 270
3 270 232 231
3 234 232 267
3 269 234 267
3 229 234 269
3 273 271 272
3 273 239 238
3 273 238 271
3 271 238 274
3 274 238 241
3 275 274 241
3 243 276 277
3 244 243 277
3 245 278 243
3 243 278 276
3 247 279 245
3 245 279 278
3 272 248 273
3 272 279 248
3 279 247 248
3 239 273 248
3 280 282 281
3 282 280 275
3 282 275 249
3 249 275 241
3 244 277 283
3 251 244 283
3 283 252 251
3 284 252 283
3 287 286 285
3 281 287 285
3 281 282 287
3 282 288 287
3 249 253 288
3 282 249 288
3 254 289 290
3 255 254 290
3 284 254 252
3 289 254 284
3 256 286 287
3 256 257 286
3 257 291 286
3 259 256 287
3 288 259 287
3 253 259 288
3 255 290 261
3 290 292 261
3 295 294 293
3 295 296 297
3 293 296 295
3 297 296 291
3 297 291 262
3 262 291 257
3 298 299 264
3 298 264 292
3 292 264 261
3 294 299 298
3 295 299 294
3 295 266 299
3 295 265 266
3 268 265 295
3 297 268 295
3 262 268 297
3 264 299 270
3 266 270 299
3 271 300 272
3 271 274 301
3 300 271 301
3 274 275 301
3 276 302 277
3 276 278 303
3 302 276 303
3 278 279 304
3 303 278 304
3 279 272 300
3 279 300 304
3 304 300 305
3 280 281 305
3 280 305 301
3 301 305 300
3 275 280 301
3 277 302 283
3 306 302 303
3 306 284 302
3 306 307 284
3 283 302 284
3 306 309 308
3 306 303 309
3 303 304 309
3 285 286 309
3 285 309 305
3 305 309 304
3 281 285 305
3 289 310 290
3 311 284 307
3 311 310 284
3 311 312 310
3 310 289 284
3 308 312 311
3 308 309 312
3 309 313 312
3 286 291 313
3 309 286 313
3 310 314 292
3 290 310 292
3 293 294 314
3 293 314 312
3 312 314 310
3 296 293 312
3 313 296 312
3 291 296 313
3 292 314 298
3 294 298 314
3 306 315 307
3 306 308 315
3 307 315 311
3 308 311 315
